<?xml version="1.0" encoding="utf-8"?>
<!-- Generator: Adobe Illustrator 24.1.3, SVG Export Plug-In . SVG Version: 6.00 Build 0)  -->
<svg version="1.1" id="Layer_1" xmlns="http://www.w3.org/2000/svg" xmlns:xlink="http://www.w3.org/1999/xlink" x="0px" y="0px"
	 viewBox="0 0 35.8 35.8" style="enable-background:new 0 0 35.8 35.8;" xml:space="preserve">
<style type="text/css">
	.st0{fill:#363636;}
	.st1{fill-rule:evenodd;clip-rule:evenodd;fill:#363636;}
	.st2{stroke:#000000;stroke-width:0.2;}
	.st3{stroke:#000000;stroke-width:0.3;}
</style>
<g id="noun_online_test_2613202" transform="translate(-0.6 405.795)">
	<g id="Group_647" transform="translate(0.75 2.205)">
		<path id="Path_449" class="st3" d="M30.1-403.3H5.4c-0.8,0-1.4,0.6-1.4,1.4c0,0,0,0,0,0v16.5c0,0.8,0.6,1.4,1.4,1.4h10.6l-0.2,1.2
			c-0.2,1.2-0.9,2.2-2,2.8l-0.1,0.1c-0.1,0.1-0.2,0.2-0.2,0.3v0.2h-1.8c-0.2,0-0.3,0.1-0.3,0.3l0,0v1.7c0,0.2,0.1,0.3,0.3,0.3h12.2
			c0.2,0,0.3-0.1,0.3-0.3v-1.7c0-0.2-0.1-0.3-0.3-0.3l0,0h-1.8c0-0.1,0.1-0.4-0.2-0.5l-0.1-0.1c-1-0.6-1.8-1.6-2-2.8l-0.2-1.3h10.6
			c0.8,0,1.4-0.6,1.4-1.4v-16.5C31.6-402.7,30.9-403.3,30.1-403.3C30.1-403.3,30.1-403.3,30.1-403.3z M23.5-377.6H12v-1h11.5
			L23.5-377.6z M19.1-382.5c0.2,1.4,1.1,2.6,2.3,3.3v0h-7.3v0c1.2-0.7,2-1.9,2.3-3.3l0.2-1.4h2.3L19.1-382.5z M30.9-385.3
			c0,0.4-0.3,0.8-0.8,0.8H5.4c-0.4,0-0.8-0.3-0.8-0.8v-16.5c0-0.4,0.3-0.8,0.8-0.8h24.8c0.4,0,0.8,0.3,0.8,0.8V-385.3z"/>
		<path id="Path_450" class="st3" d="M29.6-401.6H5.9c-0.2,0-0.3,0.1-0.3,0.3l0,0v15.4c0,0.2,0.1,0.3,0.3,0.3h0h23.7
			c0.2,0,0.3-0.1,0.3-0.3v-15.4C29.9-401.5,29.7-401.6,29.6-401.6z M29.2-386.2h-23V-401h23L29.2-386.2z"/>
		<path id="Path_451" class="st3" d="M10.8-394.1h6.9c0.2,0,0.3-0.2,0.3-0.3c0-0.2-0.1-0.3-0.3-0.3h-6.9c-0.2,0-0.3,0.2-0.3,0.3
			C10.5-394.3,10.7-394.1,10.8-394.1z"/>
		<path id="Path_452" class="st3" d="M10.8-391.5h9.8c0.2,0,0.3-0.2,0.3-0.3c0-0.2-0.1-0.3-0.3-0.3h-9.8c-0.2,0-0.3,0.2-0.3,0.3
			C10.5-391.6,10.7-391.5,10.8-391.5z"/>
		<path id="Path_453" class="st3" d="M22.9-395.1c0.2,0,0.3-0.1,0.3-0.3c0-0.3,0.1-0.5,0.3-0.7c0.2-0.2,0.5-0.2,0.8-0.1
			c0.3,0.1,0.5,0.3,0.6,0.6c0.1,0.3,0,0.6-0.3,0.8c-0.6,0.5-0.9,1.2-0.9,1.9c0,0.2,0.1,0.3,0.3,0.3s0.3-0.1,0.3-0.3c0,0,0,0,0,0
			c0-0.5,0.2-1.1,0.6-1.4c0.6-0.5,0.7-1.5,0.1-2.1c-0.5-0.6-1.4-0.7-2-0.2c-0.4,0.3-0.6,0.7-0.6,1.2
			C22.6-395.3,22.7-395.1,22.9-395.1z"/>
		<path id="Path_454" class="st3" d="M24.1-390.7c0.2,0,0.3-0.1,0.3-0.3c0,0,0,0,0,0c0-0.2-0.2-0.3-0.3-0.3c-0.2,0-0.3,0.1-0.3,0.3
			C23.7-390.8,23.8-390.7,24.1-390.7C24-390.7,24-390.7,24.1-390.7L24.1-390.7z"/>
	</g>
</g>
</svg>
