<?xml version="1.0" encoding="UTF-8"?>
<svg id="Layer_1" data-name="Layer 1" xmlns="http://www.w3.org/2000/svg" viewBox="0 0 32.67764 23.35186">
  <path d="M27.65492,9.56828c-1.2751,.32224-2.42927,.59074-3.56356,.92639-.16398,.04852-.29034,.40858-.33458,.64323-.14074,.74659-.25176,1.49998-.34232,2.25457-.13625,1.13528-.69159,1.79977-1.82042,1.99648-3.7057,.64575-7.39965,.48712-11.06325-.3016-1.01966-.21952-2.03195-.54867-2.98941-.96227-1.14181-.49323-1.41071-1.23248-1.05655-2.43538,.31406-1.06669,.60406-2.14377,.99013-3.18457,.20179-.544,.07926-.77462-.41054-1.01803-2.04154-1.01456-4.0665-2.06257-6.0945-3.10422-.25743-.13222-.53482-.26056-.73705-.45815C-.21892,3.48329-.00359,3.05759,.79415,2.89939c1.98108-.39286,3.96863-.75313,5.95377-1.1255C9.85682,1.19073,12.96235,.58809,16.07838,.04586c.51322-.08931,1.14118-.05514,1.60035,.16424,4.3271,2.06739,8.62935,4.18682,12.93794,6.29295,.55097,.26932,1.11524,.51887,1.63651,.83779,.20513,.1255,.45825,.44805,.42073,.62333-.04463,.20849-.35283,.44322-.59156,.51258-.84137,.24443-1.69608,.45387-2.55714,.61599-.61399,.1156-.89932,.42598-.96008,1.0429-.09171,.93123-.25859,1.85523-.34246,2.78691-.01819,.20209,.13046,.47397,.28687,.62755,.68211,.66978,.6319,1.28159-.114,1.90135-.21039,.1748-.38898,.55315-.36388,.81742,.10751,1.13219,.48591,2.15351,1.38986,2.93635,.23673,.20501,.33792,.56653,.50135,.85618-.31172,.10757-.61912,.29182-.93591,.3097-1.53193,.08646-1.80879,.4085-1.78558,2.02945,.00452,.31541-.22133,.63412-.34093,.95131-.25508-.23437-.59721-.42227-.75117-.71064-1.02252-1.91518-1.1135-3.89294-.34552-5.92969,.2317-.6145,.40034-1.22752,.11699-1.94265-.24341-.61434,.23878-1.06012,.74683-1.4382,.29164-.21704,.58922-.57227,.65968-.91186,.18196-.87697,.23922-1.77981,.36767-2.85053Zm3.07841-1.78257c-.28251-.2006-.3685-.28098-.46958-.33064-4.33339-2.12883-8.66489-4.26162-13.01011-6.36605-.28431-.13769-.68791-.12539-1.01434-.06522C11.83111,1.83626,7.42645,2.66801,3.0222,3.50177c-.26338,.04986-.51589,.1571-.99423,.30668,2.15842,1.09849,4.09553,2.08434,5.83014,2.96714,.64602-.64633,1.08234-1.44073,1.71334-1.65104,2.48269-.82748,5.04739-.91692,7.63603-.43247,2.25561,.42212,4.0637,1.75509,6.00834,2.81886,.72939,.399,1.0695,.95404,.72973,1.95038,2.30101-.56802,4.439-1.0958,6.78778-1.67561Zm-8.20119,5.06101c.18308-1.43687,.35747-2.6764,.4805-3.92101,.01696-.17152-.17763-.44114-.34747-.54154-1.20563-.7127-2.39009-1.48033-3.65757-2.06514-2.40105-1.10783-4.94302-1.03031-7.50344-.69307-1.22645,.16154-2.30897,.41598-2.50402,1.90401-.02132,.16268-.17612,.30325-.23346,.46656-.39067,1.11253-.77182,2.22841-1.20631,3.48907,5.19859-.73608,10.15476-.90356,14.97177,1.36111Zm-.2415,1.1554c-2.5482-2.05157-12.82189-2.77628-14.96095-1.05088,.66892,.31276,1.23087,.68728,1.8483,.84602,3.97695,1.02252,7.9992,1.37818,12.071,.6325,.31404-.05751,.60445-.24405,1.04165-.42764Zm4.13518,6.4344c.26024-.76729,.70049-1.26015,1.51721-1.17975-.35271-.96676-.68172-1.86855-1.07095-2.93539-.42111,1.44692-.94385,2.70169-.44626,4.11514Z" style="fill: #231f20;"/>
</svg>