<?xml version="1.0" encoding="utf-8"?>
<!-- Generator: Adobe Illustrator 26.5.0, SVG Export Plug-In . SVG Version: 6.00 Build 0)  -->
<svg version="1.1" id="Layer_1" xmlns="http://www.w3.org/2000/svg" xmlns:xlink="http://www.w3.org/1999/xlink" x="0px" y="0px"
	 viewBox="0 0 32 31" style="enable-background:new 0 0 32 31;" xml:space="preserve">
<style type="text/css">
	.st0{opacity:0.161;fill:#FFFFFF;enable-background:new    ;}
	.st1{fill:#FFFFFF;}
</style>
<g>
	<path id="Rectangle_193_00000124851500225949165910000013133000216088916358_" class="st0" d="M6,0h20c3.3,0,6,2.7,6,6v19
		c0,3.3-2.7,6-6,6H6c-3.3,0-6-2.7-6-6V6C0,2.7,2.7,0,6,0z"/>
	<path class="st1" d="M15,9.4c0.7,0,1.3,0,2,0c0,0,0.1,0,0.1,0c0.2,0,0.4,0,0.6,0c1.1,0,2.2,0.1,3.4,0.1c0.5,0,1.1,0.1,1.6,0.2
		c0.9,0.1,1.4,0.6,1.7,1.5c0.2,0.6,0.3,1.2,0.3,1.9c0,1.5,0,3,0,4.5c0,0.2,0,0.4,0,0.6c0,0.5-0.1,1-0.2,1.5
		c-0.2,0.9-0.8,1.5-1.7,1.6c-0.5,0.1-1,0.2-1.5,0.2c-0.9,0.1-1.8,0.1-2.7,0.1c-1.4,0-2.9,0.1-4.3,0c-1.1,0-2.3-0.1-3.4-0.1
		c-0.5,0-1-0.1-1.5-0.2c-0.9-0.2-1.4-0.7-1.7-1.5c-0.2-0.5-0.2-1.1-0.3-1.6c0-0.7-0.1-1.3-0.1-2c0,0,0-0.1,0-0.1c0-0.3,0-0.7,0-1
		c0,0,0-0.1,0-0.1c0-0.6,0.1-1.2,0.1-1.8c0-0.5,0.1-1,0.2-1.6c0.1-0.5,0.3-0.9,0.7-1.3c0.4-0.4,0.9-0.5,1.4-0.6
		c0.8-0.1,1.5-0.2,2.3-0.2c1,0,1.9-0.1,2.9-0.1C14.9,9.4,15,9.4,15,9.4z M14.3,12.9c0,1.8,0,3.5,0,5.2c1.5-0.9,3-1.7,4.6-2.6
		C17.3,14.6,15.8,13.8,14.3,12.9z"/>
</g>
</svg>
