<?xml version="1.0" encoding="utf-8"?>
<!-- Generator: Adobe Illustrator 24.1.2, SVG Export Plug-In . SVG Version: 6.00 Build 0)  -->
<svg version="1.1" id="Layer_1" xmlns="http://www.w3.org/2000/svg" xmlns:xlink="http://www.w3.org/1999/xlink" x="0px" y="0px"
	 viewBox="0 0 540 478.2" style="enable-background:new 0 0 540 478.2;" xml:space="preserve">
<style type="text/css">
	.st0{clip-path:url(#SVGID_2_);}
	.st1{fill:#EBEBEB;}
	.st2{fill:#F0F0F0;}
	.st3{fill:#F5F5F5;}
	.st4{fill:#E6E6E6;}
	.st5{fill:#FFFFFF;}
	.st6{fill:#E0E0E0;}
	.st7{fill:#FAFAFA;}
	.st8{fill:#571B1A;}
	.st9{opacity:0.3;fill:#FFFFFF;enable-background:new    ;}
	.st10{fill:#263238;}
	.st11{opacity:0.4;fill:#571B1A;enable-background:new    ;}
	.st12{opacity:0.1;fill:#571B1A;enable-background:new    ;}
	.st13{opacity:0.4;fill:#FFFFFF;enable-background:new    ;}
	.st14{opacity:0.3;enable-background:new    ;}
	.st15{opacity:0.6;fill:#571B1A;enable-background:new    ;}
	.st16{fill:#FF5652;}
	.st17{fill:#FF8B7B;}
	.st18{opacity:0.2;enable-background:new    ;}
	.st19{opacity:0.2;}
	.st20{opacity:0.5;fill:#FFFFFF;enable-background:new    ;}
	.st21{opacity:0.7;fill:#FFFFFF;enable-background:new    ;}
</style>
<g id="Group_535" transform="translate(0 -0.305)">
	<g>
		<defs>
			<rect id="SVGID_1_" y="0.6" width="540" height="477.9"/>
		</defs>
		<clipPath id="SVGID_2_">
			<use xlink:href="#SVGID_1_"  style="overflow:visible;"/>
		</clipPath>
		<g id="Group_534" transform="translate(0 0.305)" class="st0">
			<g id="Group_49" transform="translate(-50.114 -0.328)">
				<g id="Group_6">
					<g id="Group_4">
						<rect id="Rectangle_2" x="0" y="429.8" class="st1" width="655.8" height="0.3"/>
						<path id="Path_76" class="st1" d="M310.9,371.3H57.6c-4.1,0-7.5-3.4-7.5-7.5V7.8c0-4.1,3.4-7.5,7.5-7.5h253.3
							c4.1,0,7.5,3.4,7.5,7.5v356C318.4,368,315,371.3,310.9,371.3z M57.6,0.7c-4,0-7.2,3.2-7.2,7.2v356c0,4,3.2,7.2,7.2,7.2h253.3
							c4,0,7.2-3.2,7.2-7.2V7.8c0-4-3.2-7.2-7.2-7.2L57.6,0.7z"/>
						<path id="Path_77" class="st1" d="M521.8,296.9H386.5c-2.2,0-4-2.1-4-4.7V68.9c0-2.6,1.8-4.7,4-4.7h135.3c2.2,0,4,2.1,4,4.7
							v223.3C525.8,294.8,524,296.9,521.8,296.9z M386.5,64.4c-2.1,0-3.8,2-3.8,4.5v223.3c0,2.5,1.7,4.5,3.8,4.5h135.3
							c2.1,0,3.8-2,3.8-4.5V68.9c0-2.5-1.7-4.5-3.8-4.5H386.5z"/>
					</g>
					<g id="Group_5" transform="translate(68.808 438.432)">
						<rect id="Rectangle_3" x="160" y="3.9" class="st1" width="34.1" height="0.3"/>
						<rect id="Rectangle_4" x="0" y="0.3" class="st1" width="71" height="0.3"/>
						<rect id="Rectangle_5" x="124.2" y="16.1" class="st1" width="34.5" height="0.3"/>
						<rect id="Rectangle_6" x="269.9" y="13.9" class="st1" width="50.9" height="0.3"/>
						<rect id="Rectangle_7" x="332.5" y="13.9" class="st1" width="14" height="0.3"/>
						<rect id="Rectangle_8" x="449.7" y="8.3" class="st1" width="71.6" height="0.3"/>
					</g>
				</g>
				<g id="Group_14" transform="translate(92.229 56.036)">
					<g id="Group_8" transform="translate(126.673 187.122)">
						<g id="Group_7" transform="translate(7.979 10.126)">
							<rect id="Rectangle_9" x="272.9" y="0.3" class="st2" width="59.9" height="164.6"/>
							<rect id="Rectangle_10" x="11.5" y="164.9" class="st2" width="309.8" height="11.6"/>
							<rect id="Rectangle_11" x="0" y="0.3" class="st3" width="272.9" height="164.6"/>
							<rect id="Rectangle_12" x="0" y="11.5" class="st2" width="274" height="60.2"/>
							<rect id="Rectangle_13" x="0" y="82.7" class="st2" width="274" height="60.2"/>
							<rect id="Rectangle_14" x="272.9" y="11.5" class="st4" width="10.4" height="60.2"/>
							<rect id="Rectangle_15" x="272.9" y="82.7" class="st4" width="10.4" height="60.2"/>
						</g>
						<rect id="Rectangle_16" x="0" y="0.3" class="st2" width="280.9" height="10.1"/>
						<rect id="Rectangle_17" x="280.9" y="0.3" class="st4" width="68.2" height="10.1"/>
					</g>
					<g id="Group_10" transform="translate(313.413 28.502)">
						<rect id="Rectangle_18" x="17.6" y="0.3" class="st2" width="79.7" height="100.1"/>
						<rect id="Rectangle_19" x="0" y="0.3" class="st3" width="94.2" height="100.1"/>
						<rect id="Rectangle_20" x="7.9" y="8.2" class="st5" width="78.4" height="84.4"/>
						<g id="Group_9" transform="translate(23.432 38.908)">
							<path id="Path_78" class="st4" d="M32.4,20.6l15-6.9V9.3l-15-7v5.2l9.1,3.9l-9.1,3.9V20.6z"/>
							<path id="Path_79" class="st4" d="M22.6,0.3h-2.7l4.9,22.3h2.7L22.6,0.3z"/>
							<path id="Path_80" class="st4" d="M15,15.4l-9.1-3.9L15,7.6V2.3l-15,7v4.4l15,6.9V15.4z"/>
						</g>
					</g>
					<g id="Group_11">
						<rect id="Rectangle_21" x="61.5" y="73.2" class="st2" width="9.2" height="300.6"/>
						<path id="Path_81" class="st2" d="M59.6,371.7l-0.3-1.3c0.1,0,2.5-0.6,4.4-3.8c2.4-4.3,3.9-13.3-2.8-32.3
							c-10.3-29.3-4.1-52.9,8.1-99.9c2.1-8.2,4.5-17.5,7.1-27.5c9.4-37.6,0.7-60.9-6.3-79.7c-5.4-14.5-9.7-26-4.2-39.3l1.2,0.5
							c-5.3,12.8-1.1,24.1,4.2,38.4c7.1,18.9,15.8,42.4,6.3,80.4c-2.5,10-4.9,19.3-7.1,27.5C58.1,281.5,52,305,62.1,333.8
							c6.9,19.5,5.2,29,2.7,33.5C62.7,371.1,59.7,371.7,59.6,371.7z"/>
						<path id="Path_82" class="st2" d="M49.4,373.8h33.4l-9.3-5.5H58.7L49.4,373.8z"/>
						<path id="Path_83" class="st3" d="M0,111.5h132.3L117.7,0.3H14.6L0,111.5z"/>
					</g>
					<g id="Group_13" transform="translate(164.834 24.888)">
						<path id="Path_84" class="st2" d="M31.3,104.9H102l-9.3,57.7h-52L31.3,104.9z"/>
						<g id="Group_12">
							<path id="Path_85" class="st6" d="M59.7,123.7c19.3-7,34-17.4,17.5-38.6S35.1,64,17.9,73.3C-4,85.3,0.4,119.8,0.4,119.8
								S40.5,130.6,59.7,123.7z"/>
							<path id="Path_86" class="st4" d="M78.4,104.4c-14.7-10-25.2-21.6-8.1-33.9s38.2-6,50.8,5.4c16.1,14.5,6.8,40,6.8,40
								S93.2,114.4,78.4,104.4z"/>
							<path id="Path_87" class="st2" d="M52.5,79c17.2-1,31.7-5.5,23.5-24.2S47.2,30.9,31,34.1C10.4,38.1,5.5,63.9,5.5,63.9
								S35.3,80,52.5,79z"/>
							<path id="Path_88" class="st1" d="M74.1,67.9c-14.3-4.6-25.6-11.5-14.6-25.5s29.5-14,42.5-7.8c16.6,7.9,15.1,30.8,15.1,30.8
								S88.5,72.6,74.1,67.9z"/>
							<path id="Path_89" class="st3" d="M47.3,44c14.3,4.7,27.5,5.7,26.9-12S58.5,3.4,44.3,0.7c-18-3.4-30.3,16-30.3,16
								S33,39.3,47.3,44z"/>
							<path id="Path_90" class="st7" d="M83.6,36.4c-10.2,0.7-19.1-0.8-15.7-12.5S83,7.7,92.8,8.3C105.3,9.1,110.1,24,110.1,24
								S93.8,35.7,83.6,36.4z"/>
						</g>
					</g>
				</g>
				<g id="Group_34" transform="translate(104.289 69.147)">
					<g id="Group_15" transform="translate(0 188.115)">
						<rect id="Rectangle_22" x="0" y="0.3" class="st8" width="445.6" height="16"/>
						<rect id="Rectangle_23" x="0" y="0.3" class="st9" width="119.3" height="16"/>
						<path id="Path_91" class="st8" d="M121.2,16.3h-10.4l5.4,200.4h9.9l5.4-200.4H121.2z"/>
						<path id="Path_92" class="st9" d="M116.2,216.7h4.9V20.6L111,22.5L116.2,216.7z"/>
						<path id="Path_93" class="st8" d="M22.8,16.3H12.5l5.4,200.4h9.9l5.4-200.4H22.8z"/>
						<path id="Path_94" class="st9" d="M17.9,216.7h4.9V20.6l-10.2,1.9L17.9,216.7z"/>
						<path id="Path_95" class="st8" d="M422.8,16.3h-10.4l5.4,200.4h9.9l5.4-200.4H422.8z"/>
						<path id="Path_96" class="st9" d="M417.9,216.7h4.9V20.6l-10.2,1.9L417.9,216.7z"/>
						<path id="Path_97" class="st8" d="M324.5,16.3h-10.4l5.4,200.4h9.9l5.4-200.4H324.5z"/>
						<path id="Path_98" class="st9" d="M319.5,216.7h4.9V20.6l-10.2,1.9L319.5,216.7z"/>
					</g>
					<g id="Group_18" transform="translate(99.836 102.518)">
						<path id="Path_99" class="st10" d="M111.7,0.3H5.7C2.7,0.2,0.1,2.6,0,5.6c0,0.6,0,1.1,0.2,1.7l14.1,67.4
							c0.9,3.9,4.3,6.7,8.4,6.9h106c3,0.1,5.6-2.2,5.7-5.3c0-0.6,0-1.1-0.2-1.7L120.1,7.3C119.1,3.3,115.7,0.5,111.7,0.3z"/>
						<path id="Path_100" class="st5" d="M23.7,77.7c-2.7-0.2-5-2.1-5.7-4.7L3.9,5.6C3.6,4.7,3.8,3.7,4.4,3c0.6-0.6,1.4-1,2.3-1h106
							c2.7,0.2,5,2.1,5.7,4.7l14.1,67.4c0.2,0.9,0.1,1.9-0.5,2.6c-0.6,0.7-1.4,1-2.3,1L23.7,77.7z"/>
						<path id="Path_101" class="st11" d="M103.7,72.3L90.3,8.5c-0.3-1.4,0.6-2.8,2-3.1c0.2,0,0.4-0.1,0.5-0.1H110
							c1.2,0,2.3,0.9,2.5,2.1L126,71.2c0.3,1.4-0.6,2.8-2,3.1c-0.2,0-0.4,0.1-0.5,0.1h-17.2C105,74.4,103.9,73.5,103.7,72.3z"/>
						<g id="Group_16" transform="translate(12.142 7.787)">
							<path id="Path_102" class="st8" d="M0.6,3.1L0,0.3h21.2l0.6,2.8H0.6z"/>
							<path id="Path_103" class="st1" d="M10.4,10L9.8,7.2h37.2l0.6,2.8L10.4,10z"/>
							<path id="Path_104" class="st1" d="M12.3,16.8l-0.6-2.8h41.7l0.6,2.8H12.3z"/>
							<path id="Path_105" class="st1" d="M14.3,23.7l-0.6-2.8h33.6l0.6,2.8H14.3z"/>
						</g>
						<g id="Group_17" transform="translate(18.597 39.525)">
							<path id="Path_106" class="st8" d="M0.6,3.1L0,0.3h13.4L14,3.1H0.6z"/>
							<path id="Path_107" class="st1" d="M10.4,10L9.8,7.2h16.4l0.6,2.8H10.4z"/>
							<path id="Path_108" class="st1" d="M30.7,10l-0.6-2.8h16.4l0.6,2.8H30.7z"/>
							<path id="Path_109" class="st1" d="M12.3,16.8l-0.6-2.8h55.4l0.6,2.8H12.3z"/>
							<path id="Path_110" class="st1" d="M14.3,23.7l-0.6-2.8h42.2l0.6,2.8H14.3z"/>
						</g>
						<path id="Path_111" class="st10" d="M161.2,81.1H21.7c-3.8,0-6.3,2.2-5.5,4.8h153.4C168.8,83.3,165,81.1,161.2,81.1z"/>
					</g>
					<g id="Group_30" transform="translate(62.245)">
						<path id="Path_112" class="st12" d="M13.4,85.8L0.1,22c-0.3-1.4,0.6-2.8,2-3.1c0.2,0,0.4-0.1,0.5-0.1h108.3
							c1.2,0,2.3,0.9,2.5,2.1l13.4,63.8c0.3,1.4-0.6,2.8-2,3.1c-0.2,0-0.4,0.1-0.5,0.1H16C14.7,87.9,13.7,87,13.4,85.8z"/>
						<g id="Group_29" transform="translate(0.863)">
							<g id="Group_23" transform="translate(24.037)">
								<g id="Group_19" transform="translate(3.794 18.204)">
									<path id="Path_113" class="st8" d="M23.3,2.8H0.5L0,0.3h22.7L23.3,2.8z"/>
									<path id="Path_114" class="st11" d="M19.6,6.7h-9.1L9.9,4.2H19L19.6,6.7z"/>
									<path id="Path_115" class="st11" d="M34.7,6.7H20.7l-0.5-2.4h14.1L34.7,6.7z"/>
									<path id="Path_116" class="st11" d="M40.9,10.6H11.2l-0.5-2.4h29.6L40.9,10.6z"/>
									<path id="Path_117" class="st11" d="M37.1,14.5H12.1L11.5,12h25.1L37.1,14.5z"/>
								</g>
								<path id="Path_118" class="st11" d="M57.5,74.2H41.6l0.5,2.4H58L57.5,74.2z"/>
								<g id="Group_20" transform="translate(13.763 66.019)">
									<path id="Path_119" class="st8" d="M23.9,2.8H0.5L0,0.3h23.4L23.9,2.8z"/>
									<path id="Path_120" class="st11" d="M33.3,12H11.5l0.5,2.4h21.7L33.3,12z"/>
									<path id="Path_121" class="st11" d="M26.7,8.1H10.7l0.5,2.4h15.9L26.7,8.1z"/>
									<path id="Path_122" class="st11" d="M41.8,4.2H9.9l0.5,2.4h31.9L41.8,4.2z"/>
								</g>
								<g id="Group_21">
									<path id="Path_123" class="st8" d="M26.2,2.8H0.5L0,0.3h25.7L26.2,2.8z"/>
									<path id="Path_124" class="st11" d="M39,12H10.6l0.5,2.4h28.4L39,12z"/>
									<path id="Path_125" class="st11" d="M33.3,8.1H9.8l0.5,2.4h23.5L33.3,8.1z"/>
									<path id="Path_126" class="st11" d="M34.8,4.2H8.9l0.5,2.4h25.9L34.8,4.2z"/>
								</g>
								<g id="Group_22" transform="translate(7.558 36.259)">
									<path id="Path_127" class="st8" d="M18.4,2.8H0.5L0,0.3h17.9L18.4,2.8z"/>
									<path id="Path_128" class="st11" d="M46.5,12H11.5l0.5,2.4H47L46.5,12z"/>
									<path id="Path_129" class="st11" d="M25.2,8.1H10.7l0.5,2.4h14.5L25.2,8.1z"/>
									<path id="Path_130" class="st11" d="M40.9,8.1H26.4l0.5,2.4h14.5L40.9,8.1z"/>
									<path id="Path_131" class="st11" d="M41.8,4.2H9.9l0.5,2.4h31.9L41.8,4.2z"/>
									<path id="Path_132" class="st11" d="M41.7,23.7H14l0.5,2.4h27.8L41.7,23.7z"/>
									<path id="Path_133" class="st11" d="M21.2,19.8h-8.1l0.5,2.4h8.1L21.2,19.8z"/>
									<path id="Path_134" class="st11" d="M33.9,19.8H22.4l0.5,2.4h11.5L33.9,19.8z"/>
									<path id="Path_135" class="st11" d="M44.2,15.9H12.4l0.5,2.4h31.9L44.2,15.9z"/>
								</g>
							</g>
							<g id="Group_27" transform="translate(89.032 27.883)">
								<g id="Group_24" transform="translate(0 20.882)">
									<path id="Path_136" class="st11" d="M11.9,2.8H0.5L0,0.3h11.4L11.9,2.8z"/>
									<path id="Path_137" class="st11" d="M31,2.8H13.4l-0.5-2.4h17.6L31,2.8z"/>
									<path id="Path_138" class="st11" d="M38.4,6.7H1.3L0.8,4.2h37.1L38.4,6.7z"/>
									<path id="Path_139" class="st11" d="M33.5,10.6H2.1L1.6,8.1H33L33.5,10.6z"/>
								</g>
								<g id="Group_25" transform="translate(2.899)">
									<path id="Path_140" class="st11" d="M44.6,8.1H9.1l0.5,2.4h35.5L44.6,8.1z"/>
									<path id="Path_141" class="st11" d="M37.7,4.2H8.3l0.5,2.4h29.4L37.7,4.2z"/>
									<path id="Path_142" class="st8" d="M32.4,0.3H0l0.5,2.4h32.4L32.4,0.3z"/>
								</g>
								<g id="Group_26" transform="translate(3.765 38.936)">
									<path id="Path_143" class="st11" d="M45.4,8.1H1.6l0.5,2.4h43.8L45.4,8.1z"/>
									<path id="Path_144" class="st11" d="M18.9,4.2H0.8l0.5,2.4h18.1L18.9,4.2z"/>
									<path id="Path_145" class="st11" d="M38.6,4.2H20.5L21,6.7h18.1L38.6,4.2z"/>
									<path id="Path_146" class="st11" d="M39.9,0.3H0l0.5,2.4h39.9L39.9,0.3z"/>
									<path id="Path_147" class="st11" d="M38.8,19.8H4.1l0.5,2.4h34.8L38.8,19.8z"/>
									<path id="Path_148" class="st11" d="M13.4,15.9H3.3l0.5,2.4h10.1L13.4,15.9z"/>
									<path id="Path_149" class="st11" d="M29.2,15.9H14.7l0.5,2.4h14.4L29.2,15.9z"/>
									<path id="Path_150" class="st11" d="M42.4,12H2.4l0.5,2.4h39.9L42.4,12z"/>
								</g>
							</g>
							<g id="Group_28" transform="translate(0 81.553)">
								<path id="Path_151" class="st11" d="M28.8,8.1H1.6l0.5,2.4h27.2L28.8,8.1z"/>
								<path id="Path_152" class="st11" d="M20.8,4.2h-20l0.5,2.4h20L20.8,4.2z"/>
								<path id="Path_153" class="st11" d="M42.2,4.2h-20l0.5,2.4h20L42.2,4.2z"/>
								<path id="Path_154" class="st11" d="M39.9,0.3H0l0.5,2.4h39.9L39.9,0.3z"/>
							</g>
						</g>
					</g>
					<g id="Group_31" transform="translate(391.664 162.639)">
						<path id="Path_155" class="st8" d="M16.8,0.3H0l2,25.5h12.9L16.8,0.3z"/>
						<path id="Path_156" class="st13" d="M16.8,0.3H0l2,25.5h12.9L16.8,0.3z"/>
					</g>
					<g id="Group_33" transform="translate(33.215 133.374)">
						<path id="Path_157" class="st10" d="M8.3,11.9h24.2l-8.3,43.2H0L8.3,11.9z"/>
						<path id="Path_158" class="st8" d="M39.1,0.3H4.9l9.6,54.7h34.2L39.1,0.3z"/>
						<g id="Group_32" transform="translate(2.881)">
							<path id="Path_159" class="st8" d="M0,0.3h2l9.6,54.7h-2L0,0.3z"/>
							<path id="Path_160" class="st14" d="M0,0.3h2l9.6,54.7h-2L0,0.3z"/>
						</g>
						<path id="Path_161" class="st5" d="M19.4,49.2l-7.5-43h22.3l7.5,43H19.4z"/>
						<path id="Path_162" class="st15" d="M40.7,49.2l-7.5-43h1.1l7.5,43H40.7z"/>
					</g>
				</g>
				<g id="Group_48" transform="translate(256.463 92.369)">
					<g id="Group_43" transform="translate(0)">
						<path id="Path_163" class="st10" d="M89.5,40.5c0.5,1.1,0.3,2.2-0.4,2.5s-1.6-0.3-2.1-1.3s-0.3-2.2,0.4-2.5S89,39.4,89.5,40.5
							z"/>
						<path id="Path_164" class="st16" d="M89.9,42.6c0,0,0.4,7.2-0.9,11.3c2.7,0.9,5.5-1.4,5.5-1.4L89.9,42.6z"/>
						<path id="Path_165" class="st10" d="M89.6,31.8c-0.1,0.1-0.2,0.1-0.4,0.2c-1.7,0-3.3,0.9-4.3,2.4c-0.2,0.3-0.6,0.4-0.9,0.2
							c-0.3-0.2-0.4-0.6-0.2-0.9c1.2-1.8,3.2-3,5.4-3c0.4,0,0.7,0.3,0.7,0.6l0,0C89.9,31.5,89.8,31.7,89.6,31.8z"/>
						<path id="Path_166" class="st17" d="M128.1,38.9c4.1,14,8.6,24.9,14.1,31.1c0,0,0.1,11-18.7,16.3c-20.7,5.8-12.7-7.5-12.7-7.5
							c10.5-5.8,9.5-14.7,1.6-18L128.1,38.9z"/>
						<path id="Path_167" class="st10" d="M146.6,67.3c-0.4-5.1-0.9-11-4-11.1c-3.5-0.2-23.7,8.9-28,15.2s4.1,12.6,4.1,12.6
							L146.6,67.3z"/>
						<g id="Group_36" transform="translate(76.78 82.926)">
							<path id="Path_168" class="st17" d="M28.5,63.8L11,63.3l0.3,14.6c0,0,15.2-1.6,15.9-5.6L28.5,63.8z"/>
							<path id="Path_169" class="st17" d="M1.8,70.4L0,77.9l11.4,0L11,63.3L1.8,70.4z"/>
							<g id="Group_35" transform="translate(21.493)">
								<path id="Path_170" class="st8" d="M77,3.1l-0.4,3.7c-0.1,1.2-0.3,2.4-0.4,3.6c-0.3,2.4-0.7,4.7-1.1,7.1
									c-0.8,4.7-1.8,9.4-3,14.2c-1.2,4.8-2.7,9.6-4.4,14.3c-0.9,2.4-1.8,4.8-3,7.2c-1.1,2.6-2.5,5-3.9,7.4
									c-0.4,0.6-0.8,1.3-1.2,1.9s-0.9,1.3-1.4,1.9c-0.5,0.6-0.9,1.3-1.5,1.9l-0.9,1c-0.3,0.4-0.6,0.7-1,1
									c-2.6,2.6-5.7,4.6-9.1,6.1c-5.2,2.2-10.7,3.6-16.3,4.1c-2.6,0.3-5.1,0.4-7.6,0.5s-5,0-7.4-0.1c-2.4-0.1-4.9-0.3-7.3-0.6
									C4.9,78,2.6,77.6,0,77.1l0.4-13.7c8.4-1.7,17.2-3.4,24.8-5.9c1.8-0.6,3.6-1.3,5.3-2c1.5-0.6,2.9-1.4,4.2-2.3
									c0.8-0.5,1.4-1.1,1.9-1.9l0.4-0.6c0.2-0.2,0.3-0.5,0.5-0.8c0.2-0.3,0.4-0.6,0.5-0.9c0.2-0.3,0.4-0.6,0.5-1
									c1.5-3.4,2.8-6.8,3.8-10.4c1.1-3.9,2.1-7.9,2.9-12c0.9-4.1,1.6-8.4,2.3-12.6l1-6.4l0.9-6.2L77,3.1z"/>
								<path id="Path_171" class="st18" d="M77,3.1l-0.4,3.7c-0.1,1.2-0.3,2.4-0.4,3.6c-0.3,2.4-0.7,4.7-1.1,7.1
									c-0.8,4.7-1.8,9.4-3,14.2c-1.2,4.8-2.7,9.6-4.4,14.3c-0.9,2.4-1.8,4.8-3,7.2c-1.1,2.6-2.5,5-3.9,7.4
									c-0.4,0.6-0.8,1.3-1.2,1.9s-0.9,1.3-1.4,1.9c-0.5,0.6-0.9,1.3-1.5,1.9l-0.9,1c-0.3,0.4-0.6,0.7-1,1
									c-2.6,2.6-5.7,4.6-9.1,6.1c-5.2,2.2-10.7,3.6-16.3,4.1c-2.6,0.3-5.1,0.4-7.6,0.5s-5,0-7.4-0.1c-2.4-0.1-4.9-0.3-7.3-0.6
									C4.9,78,2.6,77.6,0,77.1l0.4-13.7c8.4-1.7,17.2-3.4,24.8-5.9c1.8-0.6,3.6-1.3,5.3-2c1.5-0.6,2.9-1.4,4.2-2.3
									c0.8-0.5,1.4-1.1,1.9-1.9l0.4-0.6c0.2-0.2,0.3-0.5,0.5-0.8c0.2-0.3,0.4-0.6,0.5-0.9c0.2-0.3,0.4-0.6,0.5-1
									c1.5-3.4,2.8-6.8,3.8-10.4c1.1-3.9,2.1-7.9,2.9-12c0.9-4.1,1.6-8.4,2.3-12.6l1-6.4l0.9-6.2L77,3.1z"/>
							</g>
						</g>
						<g id="Group_37" transform="translate(97.162 65.356)">
							<path id="Path_172" class="st8" d="M0.7,38c4.2,17.6,9.7,47,10.9,85.5h76.8c0.4-9.5-1.2-62.9-8.9-101.6
								C76.6,7.4,62.6-2,48.1,0.8c0,0,0,0,0,0c-0.2,0-0.4,0.1-0.6,0.1L47.1,1c-9.6,2.2-23.3,5.7-31.4,8.8L15.3,10
								C4.1,14.3-2.2,26.3,0.7,38z"/>
						</g>
						<path id="Path_173" class="st18" d="M102.8,128c0.6,3.7,1.2,7.6,1.8,11.7c6.3-6.6,8.3-26.7,8.3-26.7L102.8,128z"/>
						<g id="Group_38" transform="translate(7.722 83.301)">
							<path id="Path_174" class="st17" d="M31.3,64.4l-17.4-1.6l-0.6,14.6c5.8,1.6,12.1-0.2,16.2-4.6L31.3,64.4z"/>
							<path id="Path_175" class="st17" d="M5.6,67.1L0,77.1l13.4,0.3l0.6-14.6L5.6,67.1z"/>
							<path id="Path_176" class="st8" d="M118.9,13.4c-1.2,2.3-2.3,4.3-3.5,6.4c-1.2,2.1-2.4,4.1-3.6,6.2c-2.5,4.1-5,8.1-7.7,12.1
								c-5.4,8.1-11.4,15.9-18,23.1c-3.5,3.9-7.3,7.5-11.4,10.8c-0.5,0.4-1.1,0.9-1.7,1.3c-0.6,0.4-1.1,0.8-1.9,1.4
								c-0.7,0.5-1.5,1-2.3,1.4c-0.8,0.4-1.5,0.8-2.3,1.1c-2.9,1.3-5.9,2.2-9,2.7c-5.4,0.9-11,1-16.4,0.4c-2.6-0.3-5.1-0.8-7.6-1.4
								c-1.2-0.3-2.5-0.6-3.7-1c-1.3-0.4-2.4-0.8-3.8-1.3l2.2-13.5c8.2-1.1,17.1-2.6,23.3-5.3c1.4-0.6,2.7-1.3,3.8-2.2
								c0.4-0.3,0.9-0.7,1.2-1.1c0.1-0.1,0.5-0.5,0.8-0.8c0.3-0.3,0.6-0.6,1-0.9c2.8-2.8,5.4-5.7,7.9-8.9
								c5.3-6.8,10.2-13.9,14.8-21.2c2.4-3.7,4.7-7.5,7-11.3l3.4-5.7l3.3-5.6L118.9,13.4z"/>
						</g>
						<path id="Path_177" class="st17" d="M105.6,370.5H91.2L84,337.3h14.4L105.6,370.5z"/>
						<path id="Path_178" class="st10" d="M90.4,367.4h16.1c0.6,0,1.1,0.4,1.2,1l2.8,12.8c0.2,1.1-0.5,2.3-1.6,2.5
							c-0.2,0-0.3,0-0.5,0c-5.6-0.1-8.4-0.4-15.5-0.4c-4.4,0-10,0.5-16,0.5c-5.9,0-6.8-6-4.3-6.5c11.1-2.4,11.8-5.8,15.4-8.9
							C88.7,367.7,89.6,367.4,90.4,367.4z"/>
						<g id="Group_39" transform="translate(84.008 336.947)" class="st19">
							<path id="Path_179" d="M14.4,0.3H0l4,18.4l14.1-1.3L14.4,0.3z"/>
						</g>
						<path id="Path_180" class="st17" d="M123.5,22c5.2,13.3,8.9,20.8,5.4,30.4c-5.2,14.5-23.9,16-32.9,4.5
							c-8.1-10.3-15.2-30.3-5-41.3c7.3-7.9,19.6-8.4,27.5-1.1C120.8,16.6,122.5,19.2,123.5,22L123.5,22z"/>
						<path id="Path_181" class="st10" d="M98.3,41.9c-2.2,2.9-3.8,5.1-3.8,5.1s-4.4-11-2.7-16c-2.2-4.3-6.5,2-8.1-6.3
							s5.4-17.2,8.1-19.1c0.3,1,0.4,2,0.4,3c0,0,10.6-9.5,25.7-8.1c-1,1-1.4,3.9-1.4,3.9S132,7,135.5,15.8c-1.2-0.6-2.6-1.1-3.9-1.4
							c2.9,4.1,4,9.1,3.2,14.1c-1.1,7.2-1.7,14.4-1.8,21.7c0.2,3.7-10.1,10.8-16.3,3.2S98.3,41.9,98.3,41.9z"/>
						<path id="Path_182" class="st17" d="M104.8,39c0.8,3.1,0.6,6.4-0.7,9.3c-1.7,3.9-5.1,3-6.8-0.4c-1.5-3.1-2.5-8.8,0.2-11.6
							C100.3,33.6,103.8,35.3,104.8,39z"/>
						<g id="Group_40" transform="translate(62.772 188.528)">
							<path id="Path_183" class="st8" d="M69,0.3c0,0-66.7,24.2-68.6,56.2c-3.6,58.9,20.5,105.6,20.5,105.6l22.1-2.4
								c0,0-3.9-19-6.9-72.4c-3.7-67.1,110.2,1.6,86.7-87L69,0.3z"/>
							<path id="Path_184" class="st20" d="M69,0.3c0,0-66.7,24.2-68.6,56.2c-3.6,58.9,20.5,105.6,20.5,105.6l22.1-2.4
								c0,0-3.9-19-6.9-72.4c-3.7-67.1,110.2,1.6,86.7-87L69,0.3z"/>
						</g>
						<path id="Path_185" class="st8" d="M77.5,342.5c-0.1,0,3.5,9.8,3.5,9.8l27.6-2.7l-1.4-8.9L77.5,342.5z"/>
						<g id="Group_41" transform="translate(0 338.565)">
							<path id="Path_186" class="st17" d="M43.6,33.6H29.2L25,0.3h14.4L43.6,33.6z"/>
							<path id="Path_187" class="st10" d="M29.1,28.9l15.7,0c0.6,0,1.1,0.4,1.2,1l2.9,12.8c0.3,1.1-0.4,2.2-1.6,2.5
								c-0.2,0-0.3,0.1-0.5,0.1c-5.7-0.1-13.8-0.4-20.9-0.4c-8.3,0-9.9,0.5-19.7,0.5c-5.9,0-7.5-5.9-5.1-6.5
								C12.3,36.3,15.9,36,25.6,30C26.6,29.3,27.8,28.9,29.1,28.9z"/>
							<path id="Path_188" class="st18" d="M25,0.3l2.3,18.1l14.2-1L39.4,0.3L25,0.3z"/>
						</g>
						<g id="Group_42" transform="translate(0.672 188.528)">
							<path id="Path_189" class="st8" d="M108.1,0.3C108.1,0.3-1.2,10,0,64.9c1.2,57.1,22.5,95.6,22.5,95.6h21.3
								c0,0-4-29.6-3.3-85.8c0.2-16.8,34.2-22.4,67.5-24.4c28.7-1.7,55.6-18.1,66.7-44.6l2.3-5.4L108.1,0.3z"/>
							<path id="Path_190" class="st20" d="M108.1,0.3C108.1,0.3-1.2,10,0,64.9c1.2,57.1,22.5,95.6,22.5,95.6h21.3
								c0,0-4-29.6-3.3-85.8c0.2-16.8,34.2-22.4,67.5-24.4c28.7-1.7,55.6-18.1,66.7-44.6l2.3-5.4L108.1,0.3z"/>
						</g>
						<path id="Path_191" class="st8" d="M18.2,343.3c-0.1,0,3.7,9.9,3.7,9.9l25.8-1.8l-1.5-8.9L18.2,343.3z"/>
					</g>
					<g id="Group_47" transform="translate(48.814 118.612)">
						<g id="Group_44">
							<path id="Path_192" class="st10" d="M88.6,8.6L74.8,62c-3.5,13.7-5.3,27.8-5.3,41.9v24.8c0,6.3,4.6,11.4,10.3,11.4h71.1
								c5.7,0,10.3-5.1,10.3-11.4v-24.8c0-14.1,1.8-28.2,5.3-41.9l12.2-47.2c1.9-7.3-3.1-14.5-9.9-14.5H98.6
								C93.8,0.5,89.7,3.9,88.6,8.6z"/>
							<path id="Path_193" class="st10" d="M0.2,114.2l2.3,13.2c1.2,7,7.4,12.6,13.7,12.6h79c6.3,0,10.5-5.6,9.3-12.6l-2.3-13.2
								c-1.4-7.9-8.4-14.4-15.6-14.4H10.8C3.6,99.9-1.1,106.3,0.2,114.2z"/>
						</g>
						<g id="Group_46" transform="translate(46.298 139.751)">
							<path id="Path_194" class="st8" d="M56.6,13.6H15.2l-4-13.3h49.5L56.6,13.6z"/>
							<g id="Group_45" transform="translate(28.485 13.305)">
								<rect id="Rectangle_24" x="0" y="0.3" class="st8" width="14.8" height="98.9"/>
								<path id="Path_195" class="st21" d="M14.8,99.2H0V2.7l14.8,1.5L14.8,99.2z"/>
								<path id="Path_196" class="st21" d="M11.2,99.2H7.6V3.5l3.5,0.4V99.2z"/>
							</g>
							<path id="Path_197" class="st8" d="M69.9,127.8h-68c-1,0-1.9-0.8-1.9-1.9c0-0.6,0.3-1.2,0.8-1.5l10.8-7.9
								c5.2-3.8,11.4-5.8,17.9-5.8h12.9c6.4,0,12.7,2,17.9,5.8l10.8,7.9c0.8,0.6,1,1.8,0.4,2.6C71,127.5,70.5,127.8,69.9,127.8
								L69.9,127.8z"/>
						</g>
					</g>
				</g>
			</g>
		</g>
	</g>
</g>
</svg>
