<svg id="Layer_1" data-name="Layer 1" xmlns="http://www.w3.org/2000/svg" width="100" height="100" viewBox="0 0 100 100">
  <g>
    <rect width="100" height="100" style="fill: #fff;opacity: 0.35000000000000003"/>
    <g>
      <path d="M45.11039,19.88019c-.00576.64644-.02328,1.2931-.01139,1.93922.00462.25088-.07915.31682-.31853.30969-.52877-.01576-1.05835-.00268-1.58758-.00583-.154-.00091-.26079.01625-.25977.2175.00689,1.36228.00492,2.7246.007,4.0869a.638.638,0,0,0,.03211.11982h2.15753l-.009-.01q-.0138.89474-.02734,1.78946c-.00167.11506-.00024.23017-.00024.38544h-.37867c-1.23486,0-2.46976.00585-3.70452-.00486-.24427-.00212-.32092.07131-.31448.31616.01592.605.00523,1.2106.00523,1.83447H36.255V28.77722H34.08381a1.21351,1.21351,0,0,0-.0285.18838q-.00272,1.96989-.00038,3.93977a1.31983,1.31983,0,0,0,.02492.17379l.00158-.00373c-.4584.01231-.91676.027-1.37522.036-.263.00515-.5261.00093-.82.00093v2.22132H27.47712v6.71124H29.591c0,.70345.00493,1.36642-.01041,2.02891-.0011.04732-.14991.12861-.23156.13056-.5095.0122-1.01944.00631-1.52924.0064-.10692,0-.21384,0-.34718,0v8.78863H29.6128V51.71908c0-.81215,0-.81217.80657-.81215.37255,0,.74548.01025,1.11748-.00386.21078-.008.27.07135.26584.2728-.0109.52917.00472,1.05892-.00759,1.588-.0049.21081.04885.2974.27683.29267.63426-.01317,1.269-.00458,1.92847-.00458V50.87209h2.21368l-.00869-.00472c.0082.3223.02292.64459.02341.9669.00171,1.117-.00145,2.234-.00351,3.351a.51715.51715,0,0,1-.02393.0897H31.817v2.18183H29.66075V55.29838H25.24552c-.0066-.149-.01588-.26235-.016-.37568-.0011-1.23464-.00475-2.46931.00291-3.70391.00136-.2185-.04662-.30813-.29147-.3074-2.79262.00842-5.58529.00522-8.37794.006-.07685,0-.15371.01012-.26662.01806v2.16609H14.11861v2.1947c-.751,0-1.46331,0-2.17574.00009-.0029-.6448-.01063-1.28972-.00534-1.93453.00155-.18985-.0628-.25629-.255-.25289-.56675.01-1.13382.00742-1.70068.00133-.16135-.00173-.2264.05143-.2245.21879q.01.8796-.00009,1.75935c-.0021.17336.07407.215.22994.21295.65467-.00859,1.30943-.00951,1.96416-.01325v2.22811H20.7335v2.16515H20.2c-.46073,0-.92179.01038-1.382-.00433-.21933-.007-.2904.0633-.28619.28323.01216.63583.0043,1.272.0043,1.9504H16.35225v2.16287H14.18292V59.74644h-4.461V57.5286H5.38305v-2.217H7.47114V50.92585H9.723V46.45207h2.18174V44.317h4.45469c0,.353-.0001.70134,0,1.0497.00011.28428-.01089.56934.00835.85233.00511.07516.10212.20512.15921.20638.66324.0146,1.32691.00934,2.02734.00934V44.31517H20.771c0,.4759,0,.94235,0,1.4088,0,.71226,0,.71225.7013.71225.39211,0,.785-.015,1.17606.00536.2643.01379.35458-.06117.35132-.3393-.01449-1.235-.00616-2.47024-.00609-3.7054,0-.116,0-.23194,0-.38282h2.12278V37.5637l-.50741,0c-.45093,0-.90239-.01306-1.35258.00523-.24118.0098-.30007-.07843-.2952-.30435.01308-.607.00447-1.21441.00447-1.85964-.11723-.00642-.21995-.01658-.3227-.0169-.52934-.00165-1.05893.00824-1.58794-.00514-.21666-.00548-.29382.05932-.288.2817.01359.51919.00419,1.039.00411,1.55853,0,.10643,0,.21285,0,.3615h-6.6527v2.24789H11.956l.00814.00656c-.00589-.63668-.02752-1.27378-.01047-1.90985.00759-.28321-.0934-.34072-.35247-.33952-1.94061.00906-3.88129.00494-5.82194.005H5.37352V33.25072H7.46523c0,.52047-.00439,1.03617.00114,1.55178.00656.61281-.09819.53826.54624.54341.441.00351.88287-.01505,1.3229.00623.28572.01382.39924-.05442.38358-.369-.02815-.56545-.00795-1.1333-.00795-1.7212h2.20077V35.3378c.12945.0088.21517.01965.3009.01972,1.26437.00106,2.52874-.00052,3.7931.00212.16912.00036.29956.0063.29777-.23619-.00976-1.3231-.00481-2.64631-.00607-3.96948a1.53991,1.53991,0,0,0-.02328-.17407H14.18762V26.56658h-2.2254V24.3464c.45239,0,.89011.00428,1.32769-.0016.26218-.00353.63521.07588.75707-.06111.14085-.15833.06921-.51338.074-.78331.00758-.4289.002-.858.002-1.30849h2.16383V26.464h4.49911V24.36681H25.23v.35058q0,2.94039.00071,5.88077c.00008.13691.01041.27381.0158.41059-.10661-.00677-.213-.01634-.31951-.01959q-.96026-.02928-1.92058-.05612V28.82153H18.64877v2.131c1.3267,0,2.62738.00089,3.92805-.00124.14586-.00023.2917-.01754.43728-.02659-.00028.72766-.00028,1.455-.00028,2.18881H25.2369V30.99906q1.09046-.03456,2.18084-.069-.00012,1.09133-.00008,2.181h2.20925V30.93931H27.40847V26.58179H28.7443c.83762,0,.83808,0,.83743-.84476q-.00048-.63135-.005-1.2627a.67351.67351,0,0,0-.028-.1167H27.46423c0-.19346,0-.35474,0-.516-.00014-.46988-.01249-.9402.00446-1.40946.009-.25022-.08413-.31893-.32189-.31234-.51843.01437-1.03753.00438-1.55635.00435h-.36158c0-.33127.0054-.63093-.00128-.93033-.00978-.43822-.02822-.87624-.043-1.31435l-.01029.01024h2.16634V15.48305H23.082V13.28761c.39091,0,.7785.00594,1.1658-.00192.30021-.00609.69468.07785.8712-.07784.1509-.13308.05736-.54981.06147-.84123.00564-.40015.00141-.80043.00141-1.222h2.19414v2.05976h4.38429V8.8578h-.37167c-2.67516,0-5.35034-.00387-8.02547.00588-.2709.001-.35594-.07238-.34469-.34479.021-.50869.02113-1.01949-.00011-1.52816-.01121-.26832.08342-.32517.33517-.32438,2.68494.00845,5.36991.00525,8.05487.00524H31.821V4.49521h2.1737c0,.59231-.00015,1.17676,0,1.76122.00015.39555.00038.39683.39682.39568q.92582-.00269,1.85161-.00844l-.01238,2.18339.0052-.01024c-.56847.00049-1.13695-.00145-1.70539.00219-.53888.00345-.47584-.06467-.47611.462q-.00261,5.0721-.00089,10.14421v.40628H31.888V15.54089H29.67836v6.517h2.13145v4.41846h2.19262V22.11559h2.23423v-4.328h2.19871v2.02248h2.23607c0-.13479,0-.27631,0-.41782.00005-.47046.00716-.94107-.00327-1.41129-.00427-.19237.0616-.25732.25393-.254.5585.0097,1.11746.01166,1.67585-.0008.213-.00475.26661.07606.26343.27488-.00986.61673-.00361,1.23372-.00361,1.88924h2.26271ZM14.06524,46.46756H11.957v4.339h2.10826ZM31.75715,30.98992V28.77471c-.66075,0-1.30312-.00471-1.94512.00861-.05365.00111-.14889.12287-.1502.19q-.01767.90843,0,1.81728c.00131.06737.09608.18956.1495.19067C30.45335,30.99464,31.09577,30.98992,31.75715,30.98992Zm4.51407-8.86449c0,.68606-.00378,1.34064.0068,1.995a.22239.22239,0,0,0,.15018.15691c.65315.0109,1.30655.00709,1.96808.00709v-2.159ZM18.57347,48.5744h2.17646V46.47275H18.57347ZM38.40981,26.60978H36.286V28.7353h2.12378Zm-15.408,21.97371h2.11991V46.46891H23.00181ZM20.75068,33.24021h-2.107v2.11912h2.107Z" style="fill: #a0332e"/>
      <path d="M93.76931,84.05987c.00075.62734.00936,1.25482-.002,1.88194-.00406.22485.05588.31068.29653.30415.60656-.01646,1.21386-.00545,1.84338-.00545V90.6338c-.09019.00608-.19255.01851-.295.01893-.50974.0021-1.01954-.002-1.52924.00359a1.92109,1.92109,0,0,0-.31008.05316l.00987.009V88.48183h-4.403V86.323H87.15367v4.31279H85.0083v2.237h2.06219v2.1558H73.96281V90.7141h2.09847l-.00693-.011v2.1258h2.244V90.7031l-.00792.00774c1.39061.00012,2.78125-.00481,4.17178.00529.23334.00169.30956-.0685.30027-.29985-.01571-.39109-.00413-.78328-.00408-1.175,0-.2593,0-.51862,0-.81044H84.8877c0-.63766-.00924-1.24224.00473-1.84627.00529-.22846-.05893-.303-.29559-.30088-1.25343.01112-2.50711.01407-3.76044-.00152-.28993-.00361-.39268.06085-.3788.36948.02665.59282.00776,1.18768.00776,1.81466H78.29047l.01157.00839V86.29921H76.09661V84.073H73.96423V81.87588c.51015,0,1.01611.00012,1.52206-.00009a1.70845,1.70845,0,0,0,.38031-.00947c.07037-.01642.17557-.10882.17581-.1674.00578-1.3909-.00048-2.78184-.006-4.17276-.00007-.01654-.0194-.033-.03929-.06472H73.89331v2.11329c-.15431.00769-.27656.01856-.39886.019-.50948.002-1.019-.00239-1.52843.00392a1.70211,1.70211,0,0,0-.30507.05979l.00815.00671V75.17384H69.48467v-2.139h2.18015V70.75309l-.01.00916h2.19334l0-.32863c0-1.245.00761-2.49015-.00617-3.735-.00293-.26454.07768-.33618.33359-.3267.50908.01884,1.02017-.01184,1.52881.01224.29446.01394.363-.09154.354-.367-.01934-.59583-.00595-1.19273-.00595-1.809h2.17751v8.73483h4.4516v1.523c0,.70408,0,.70408.70973.70408h1.49662V72.99972c.76488,0,1.4964,0,2.22808-.00015.0029.12663.008.25342.008.3802.00058,1.24953.00369,2.49908-.003,3.74857-.0011.20458.04292.29945.27441.29338.65355-.01715,1.30768-.012,1.9616-.01565-.003.64565-.00162,1.29134-.01186,1.93686-.00282.17755.05951.243.23693.24095q.85107-.01,1.70231-.00014c.177.002.24278-.06433.24073-.24105q-.00984-.85107.00007-1.70231c.00211-.17784-.064-.23929-.24117-.23648-.64551.01024-1.2912.00892-1.93683.012V75.1678h2.12378V72.98869c-.43363,0-.84334-.00186-1.25306.00037q-1.55565.00849-3.11129.01992V70.83937h4.42274V68.62752H93.788l-.00045-.00212a.8944.8944,0,0,0-.03242.1686q-.0027,1.9845-.00066,3.969c0,.05678.00967.11356.0174.19855h2.14041v2.19818H93.8365v4.429h2.056v4.481q-1.0694,0-2.13309-.00014c.00357-.626-.00651-1.25245.017-1.87761.01019-.27163-.089-.32254-.33616-.32028-1.24222.01138-2.48462.00488-3.727.00592-.09463.00008-.18925.01-.29523.01593v2.16626ZM84.866,83.99742V77.478H78.36609v6.51944Zm-10.94787-8.856c.67849,0,1.30356-.00277,1.92858.002.15257.00115.207-.06122.206-.20874-.0039-.57677.00443-1.15374-.01026-1.73017a.26791.26791,0,0,0-.18223-.18775c-.5862-.01471-1.173-.0136-1.75933-.00117a.244.244,0,0,0-.17482.16132C73.91354,73.81907,73.91817,74.46158,73.91817,75.14141Z" style="fill: #a0332e"/>
      <path d="M67.24669,48.6437h2.16219v-2.156h2.24449V44.23617l-.01.01029h2.1783V42.0523c.33209,0,.63125,0,.93041,0,.35294-.00005.70636-.01138,1.05864.00374.22879.00983.31033-.06393.305-.29989-.01406-.6262-.00477-1.25292-.00477-1.90324H78.235v6.5546h2.22324c.00741.14562.01773.25857.01813.37157.00189.5294.00477,1.05885-.001,1.58819-.00181.16638.0392.25136.229.24849.58809-.00891,1.17655-.01069,1.76456.0005.21675.00411.23317-.10864.23193-.27516-.0045-.60652-.00178-1.2131-.00178-1.84223h2.18979c0,.57527-.00014,1.14075.00005,1.70622.00015.43494.00034.4352.42553.43538.5968.00025,1.19359.00006,1.82832.00006V50.876c.38611,0,.73551,0,1.08492,0,.2745,0,.54987-.01367.82326.00383.23721.01518.30136-.07738.29976-.30482-.0087-1.245.00226-2.4902-.00917-3.73518-.00237-.25808.05154-.3626.337-.35169.60435.02309,1.21018.007,1.849.007v2.11606h2.21634v2.2056h2.15226c.0082.12463.01966.21836.01974.31209.00119,1.2745-.00711,2.54909.00718,3.82342.003.27031-.0882.32966-.33773.32247-.57653-.01661-1.15387-.00527-1.75181-.00527v2.22331h2.08334V59.681H87.174v2.17681c-.32281,0-.61413.00423-.90528-.001-.43851-.00784-.8769-.02228-1.31534-.03389-.01553-.44663-.04089-.89317-.0445-1.33989-.00707-.87249-.002-1.74507-.00195-2.61761l0-.33067H80.49036v4.382h-1.471c-.70081,0-.70046,0-.701-.71239q-.00045-.66174-.0036-1.32346a.68011.68011,0,0,0-.02056-.106H69.421v2.14042c-.71457,0-1.38869.00586-2.06226-.011-.05452-.00136-.14833-.15733-.15056-.24336-.014-.53885-.00709-1.07824-.0071-1.61745v-.36228H65.775c-.75035,0-.75035,0-.75035-.75119V57.523c.62516,0,1.21166-.0137,1.797.006.2766.0093.37714-.063.36684-.35486-.02171-.615-.00661-1.23127-.00661-1.89411-.74738,0-1.46856,0-2.18962.00021l.01012.01048c.00741-.5174.01907-1.03477.02127-1.55219.00361-.8506.00753-1.70131-.0033-2.55178-.00279-.21872.06431-.28852.28364-.28417.63366.01258,1.26771.00444,1.95236.00444v-2.2714Zm10.98,8.83229V55.23347H76.064c0-.6499-.00487-1.256.003-1.86192.00233-.18031-.0382-.26682-.24233-.26281-.56788.01118-1.13618.008-1.7042.00132-.1681-.002-.24721.03948-.24633.22807q.00915,1.954-.00077,3.9081c-.00132.216.10446.23234.27254.23164.98927-.00414,1.97855-.00194,2.96783-.00188C77.47485,57.476,77.836,57.476,78.22671,57.476Zm4.47254-4.38764c0-.646-.00415-1.292.00266-1.938.00192-.18215-.049-.26753-.248-.26431q-.83664.01353-1.67361.00013c-.20052-.00326-.24711.08518-.24646.2657.00461,1.27239.007,2.54484-.00214,3.81719-.00164.22789.08394.28052.29385.27559.52826-.01238,1.05745-.01707,1.58533.00156.2471.00872.29564-.09008.29194-.30807C82.69237,54.32173,82.69917,53.705,82.69925,53.08835ZM71.58753,48.6751H69.46642v2.12942h2.12111Zm19.93189,2.22016H89.36789v2.12637c.68321,0,1.3466.00306,2.0098-.00639a.201.201,0,0,0,.13561-.14191C91.52252,52.2197,91.51942,51.56589,91.51942,50.89526Zm-6.576,6.572h2.12033v-2.105H84.94342Zm-13.3688-2.22453V53.11341c-.66044,0-1.29607.0026-1.93166-.00168-.1763-.00119-.17849.10763-.178.2336.00157.41153.00044.82306.00038,1.2346,0,.2198,0,.4396,0,.66281Zm13.40963-2.23915h2.123V50.8951h-2.123Zm-8.93647-4.42054c0-.66933.00445-1.32264-.009-1.97558-.001-.04861-.12846-.131-.20083-.13528-.2733-.01622-.54814-.00674-.8224-.00677-.35854-.00006-.71708,0-1.07374,0v2.11765Zm13.31533,6.77082c0,.666-.0032,1.30044.00625,1.93473a.20084.20084,0,0,0,.13861.139c.66291.00932,1.326.00625,2.004.00625v-2.08Z" style="fill: #a0332e"/>
      <path d="M31.83037,77.41633q.00881-1.86552.01716-3.731c.00247-.71959.00046-.71911.72233-.71978q.64649-.0006,1.293-.005a.7516.7516,0,0,0,.1307-.03424v-.39052c0-.49961-.00934-.99947.00411-1.49871.0061-.22642-.06034-.30579-.29729-.30194-.83246.01352-1.66527.00522-2.49794.00521l-3.43848-.00011-.34885,0V68.64247H25.18684v4.35192H22.9982l.00664.01049V68.64316H18.61672v2.14978h2.14345v2.21182l.00671-.01066c-1.22364-.0062-2.44728-.01429-3.67093-.017-.243-.00053-.48611.01951-.72917.03006l.00854.00695q-.0055-3.20478-.0106-6.40953c-.00009-.0584.00565-.1168.0106-.21256h6.5904v-.37538q0-1.8231.00006-3.64619c.00005-.40441.0003-.40459.39066-.40474.50968-.0002,1.01988-.01372,1.52884.00549.26554.01.35295-.0644.34972-.34091-.01443-1.23483-.00623-2.46993-.00621-3.70493,0-.11635,0-.2327,0-.37576h4.38438v2.14509h2.2344V57.54272h4.36592v4.34611H34.8654c-.77228,0-.77229,0-.77229.759l0,1.4696h6.52893v2.2224c.76355,0,1.50164,0,2.24043.00055l-.00717-.00491v2.24764c-.31316,0-.632,0-.9508,0-.33311,0-.66656.0092-.99919-.00339-.1946-.00736-.25655.066-.25425.25468.00764.6258.00288,1.25175.00288,1.89823H38.49516c0-.55186.00342-1.098-.001-1.644-.00443-.55211.07922-.48942-.5068-.49314-.48-.003-.96014.00139-1.44019-.00122-.14343-.00078-.24765.02041-.24709.20293.00407,1.34219.00326,2.68439.00571,4.02659a.68373.68373,0,0,0,.03895.142h1.37363c.72772,0,.72722,0,.72795.74334q.00068.67594.00532,1.35189a.54067.54067,0,0,0,.03559.11469H40.6311v2.21581H38.46541c0,.26465-.00006.50472,0,.7448.00012.42129-.00747.84285.008,1.26358.00266.07239.10213.20124.15907.20246.66415.01432,1.32872.00917,2.04675.00917V77.44294H45.111v2.21075l.01122-.00943a2.01464,2.01464,0,0,0-.31444-.047c-1.14648.00577-2.29294.01676-3.43941.0256-.22028.0017-.44057.00025-.6828.00025v2.19609H38.46666l.00758.00784V79.6346h-2.2405v-2.227H31.81909ZM31.77151,61.882H29.60974v-2.147H27.47932V64.0587h4.29219Z" style="fill: #a0332e"/>
      <path d="M60.58883,26.52146H58.42575V24.354H56.1806c0-.76934,0-1.49945.00006-2.2298l-.00847.0093h2.23432V17.75172h2.16991v2.07186h2.247V15.507h4.42313V11.0586l-.00893.0087h2.17624V8.87357H71.6673V6.66915c.13176-.00654.23482-.016.3379-.01611,1.25437-.00106,2.50878-.00581,3.76308.00389.22811.00176.30724-.05855.30113-.29586-.01581-.61494-.0053-1.23057-.0053-1.86532h2.1426v10.9225q-.52467,0-1.046,0c-.28419.00013-.56889-.00867-.85221.00723-.07293.00409-.202.08522-.20291.13291-.01327.69237-.0091,1.38506-.0091,2.11481h2.1148v4.39194H76.71279c-.65921,0-.6584,0-.65948.66723q-.00118.73481-.00706,1.4696a.31917.31917,0,0,1-.02779.07577H73.83807V22.18231H71.636v4.34733l.00885-.00862H69.49036V24.336H67.18482v-2.2231H62.82715v2.16036H60.57888V26.5313Zm6.648-6.638V17.7607H65.07888v2.11269h2.168v2.19027h2.22616V19.94473h2.10436V13.28879c-.61784,0-1.21417.012-1.80963-.00563-.25336-.00749-.30837.08345-.30715.31969.00884,1.71519.00369,3.43044.00547,5.14568.00041.40154.01035.80307.01555,1.20424-.12586-.00762-.25163-.01884-.37761-.02227Q68.17064,19.90514,67.23681,19.88345Zm6.69779-2.175V19.828h2.11459V17.70841Zm2.116-6.71488V8.89217c-.67282,0-1.32657-.00524-1.97984.00982-.05288.00122-.14347.1398-.14674.21749-.01563.37149-.00723.744-.0073,1.11615-.00005.24913,0,.49825,0,.7579Z" style="fill: #a0332e"/>
      <path d="M38.45927,61.9715a11.31641,11.31641,0,0,1,.58064-2.70884c.24178-.93735.48474-1.8748.7528-2.80482a2.2475,2.2475,0,0,0-.1561-1.64821,12.17855,12.17855,0,1,1,13.17325,6.76191,11.93967,11.93967,0,0,1-6.6863-.69784,3.5543,3.5543,0,0,0-2.4492-.14283c-1.42109.40085-2.858.7461-4.29135,1.10253C39.09186,61.90579,38.78724,61.924,38.45927,61.9715Zm3.06042-2.95756c.163-.03984.27394-.06562.38416-.09411.76673-.19815,1.53743-.38237,2.2987-.59966a2.53114,2.53114,0,0,1,1.94854.22122,9.8617,9.8617,0,1,0-5.37639-8.73056,10.03478,10.03478,0,0,0,1.31413,4.91064,1.79507,1.79507,0,0,1,.20769,1.32915q-.18531.78517-.38872,1.566C41.79014,58.06664,41.65936,58.5132,41.51969,59.01394Z" style="fill: #a0332e"/>
      <path d="M62.80865,79.677c.626-.00825,1.25213-.02849,1.87783-.01883.25022.00385.319-.08077.31171-.31956-.01514-.49921-.00469-.9992-.00444-1.49887.0002-.40266.00039-.403.39009-.40314.60631-.00026,1.21261-.00007,1.84841-.00007V75.25646h2.1859v.35439c0,1.24427.00586,2.48858-.00483,3.73276-.00211.24474.07248.3187.31648.3141.64594-.01216,1.29239.00218,1.939.00623l-.00781-.00645q-.01216.86562-.02491,1.73047c-.00173.12478-.00025.24961-.00025.40389H69.47086V84.0536H68.04177c-.81176,0-.81177,0-.81176.80406q0,1.61685,0,3.23368c0,.10542,0,.21084,0,.344H60.65994v2.21423h6.57911v2.22177l.00791-.00905q-2.02856.00741-4.05711.01476c-.11453.00041-.22907.00006-.37308.00006V95.0343h-2.176V93.62864c0-.75154,0-.75154-.75159-.75152l-1.48375,0c0-.382,0-.74027,0-1.09859,0-.27445-.01174-.54954.00349-.82314.01264-.22719-.06093-.31184-.29852-.30642-.62614.01428-1.25283.00483-1.90083.00483V86.29945l.619,0c.43128,0,.86293-.01073,1.29367.0044.21953.00771.29114-.06422.28716-.28345-.01155-.63582-.00409-1.272-.00409-1.96421.74388,0,1.46511,0,2.18638-.00005-.00275.64631-.00445,1.29267-.00925,1.939-.001.12987.01115.234.1814.2331.60728-.0031,1.21466.00267,1.82175-.00853a.22641.22641,0,0,0,.16207-.1498c.01118-.6629.00731-1.32606.00731-2.00464h-2.1723V81.87588c.21353,0,.39487,0,.57621,0,.47959-.00012.95921-.00294,1.43877.0011.15207.00128.2362-.03774.23326-.21343-.01115-.665-.0125-1.33014-.01752-1.99524Zm4.41987,3.26679c0-.27394-.00511-.548.00191-.82175.00425-.166-.04-.251-.22966-.248-.57707.0092-1.15443.00763-1.73157.00087-.16866-.002-.21944.06521-.21776.22567q.00909.86574-.00018,1.7316c-.002.16833.06637.2226.22566.22133q.86577-.00686,1.73161.00005c.166.0014.22491-.06948.22147-.22929C67.22367,83.53089,67.2282,83.2373,67.22852,82.9438Z" style="fill: #a0332e"/>
      <path d="M20.684,79.68656V95.02994H5.36487c-.00614-.10487-.01747-.20837-.01749-.31186q-.0014-7.3513-.00588-14.70261c-.00036-.25911.05488-.35088.33733-.35036q7.35129.01362,14.70262.007C20.47731,79.67217,20.57318,79.68106,20.684,79.68656ZM7.57942,81.87705c-.00646.134-.01508.22975-.0151.32552q-.00105,5.17612-.00648,10.35225c-.00068.26513.08154.32651.33384.326q5.1614-.01122,10.32283.00059c.26436.00065.32608-.08209.3255-.33549q-.01179-5.16139.00118-10.32282c.00085-.29076-.09-.35279-.36526-.35205q-5.132.01371-10.264.006Z" style="fill: #a0332e"/>
      <path d="M5.36562,4.49744h15.3152V19.83506H5.36562ZM7.53543,17.63807H18.503c.00755-.1051.01913-.19122.01915-.27734q.00126-5.1901.00575-10.38018c.00057-.25691-.0947-.30386-.3255-.30345q-5.17537.00921-10.35078.0051c-.10264,0-.20529.01292-.31615.02036Z" style="fill: #a0332e"/>
      <path d="M95.90715,19.8137H80.55876V4.4922H95.90715Zm-2.2-13.143c-.12492-.00683-.22079-.01662-.31665-.01664-3.44023-.00079-6.88048.00283-10.32068-.007-.28516-.00082-.335.1-.33446.35528q.0108,5.14562-.00023,10.29127c-.00057.25883.05479.35394.33653.35316,3.44021-.00956,6.88045-.006,10.32069-.00709.10267,0,.20535-.013.3148-.02043Z" style="fill: #a0332e"/>
      <path d="M71.636,26.52964q.89387.01206,1.78774.02388c.13537.00169.27078.00025.44844.00025v4.37335c.7506,0,1.45867,0,2.16739.0005l-.00654-.00476c.00685.73455.01629,1.4691.0198,2.20367.00341.71484.00075,1.4297.00075,2.17315H73.88936V33.20721H71.69958c0-.63323.00032-1.2291-.00012-1.825-.00029-.38693-.00079-.38731-.37987-.3875-.53906-.00026-1.07819.00522-1.61713-.00275-.17592-.00261-.24078.05343-.24.23512q.00867,1.94058-.00037,3.8812c-.001.19121.05959.25638.25221.25334.60663-.00959,1.21353-.00354,1.84441-.00354v2.19375H69.46856v2.26074H67.24083v4.41262c-.30846,0-.58851.0035-.86843-.00064-.92044-.01361-1.84081-.03577-2.76129-.04123a.46476.46476,0,0,1-.46988-.28448,3.13831,3.13831,0,0,1-.29791-.9643c-.04382-.90831-.022-1.81978-.026-2.73-.00051-.1158-.00008-.23161-.00008-.38084H60.66467V37.64056q.466,0,.92932,0c.32344,0,.64724-.00945.97018.00315.20535.008.27205-.06569.26855-.27091-.01085-.63629-.004-1.27288-.004-1.94633.11566-.00762.21817-.0198.32071-.02021.51945-.002,1.03915-.01024,1.55826.00317.22714.00587.31048-.05943.30288-.298-.01687-.52873-.00519-1.05835-.00517-1.58762l0-.32026h2.15531V30.97812H65.08356v-2.175h6.56153c0-.78475,0-1.53339-.00011-2.28208ZM65.05435,37.65246c0,.6801-.00546,1.32451.00821,1.96851a.265.265,0,0,0,.17994.186c.596.01444,1.19263.01358,1.78876.0015.06592-.00134.18517-.09939.18627-.15443.013-.66157.00843-1.32348.00843-2.0016Z" style="fill: #a0332e"/>
      <path d="M45.12048,19.89032V15.5411c.13681-.00685.25-.01734.36322-.01745q1.8962-.00189,3.7924.00019c.15991.00026.28243-.00186.28117-.22506-.00776-1.37188-.00442-2.74382-.00614-4.11574a.56426.56426,0,0,0-.02373-.11407l-.00845.00972h2.19041V8.89712c.12389-.00793.22659-.01981.32935-.0202.55874-.00208,1.11758-.00712,1.67619.00165.19074.003.25779-.06094.25416-.25413-.01013-.53895-.00339-1.07822-.00331-1.61736,0-.10567,0-.21133,0-.35357h4.39349V4.4955H60.5358V5.84131c0,.8111,0,.8111.80943.8111h1.40154V8.80672h-2.1712v2.25741l.01036-.00988H58.38939V13.28H56.1279V15.477c-.61418,0-1.18847-.00021-1.76276.00008-.41694.00021-.41727.00051-.41749.41289-.00031.57488-.00008,1.14975-.00008,1.76358-.48106,0-.91843,0-1.35581,0-.19579,0-.39285.0141-.58707-.00339-.24185-.02178-.30013.0847-.29615.30714.01117.6249.0039,1.25014.0039,1.9278-.74605,0-1.46621,0-2.18641.00005,0-.70229,0-1.40464,0-2.11866h-2.1775V19.876H49.535v2.15341H47.30707V19.88009c-.75492,0-1.47576,0-2.19664.00005ZM58.36265,8.90424H56.23911v2.12427h2.12354Zm-4.42518,4.3997c-.67576,0-1.32944-.00524-1.98265.00975-.05344.00123-.14542.13878-.14845.21578-.01534.39114-.00727.7832-.00735,1.17494-.00005.24934,0,.49868,0,.75119h2.13845Z" style="fill: #a0332e"/>
      <path d="M51.76573,75.17432V73.035h2.18345V70.762l-.01015.01013c.67527.0055,1.35062.00662,2.02576.0191.21069.00389.20587-.12462.20559-.269-.00122-.62594-.00052-1.25188-.00052-1.91446h2.1758V66.35993h2.247l-.00866-.01127v4.41963h2.24417l-.01118-.00938c-.01525.33061-.03728.66107-.044.99185-.00767.38041-.00178.76109-.00178,1.185H61.28671c-.69179,0-.69144,0-.692.69286q-.00063.72009-.00376,1.44018a.92377.92377,0,0,1-.02693.13133H58.38727v.38911q0,1.80765-.00007,3.61531c-.00005.38959-.00033.38992-.4032.39-1.2247.00018-2.44941-.00123-3.6741.0021a3.1896,3.1896,0,0,0-.37452.0439l.00939.01113a1.081,1.081,0,0,0,.01912-.14455q.00189-2.0524.00049-4.10482a2.21756,2.21756,0,0,0-.02614-.228Zm6.60315-2.119h-2.123v2.10839h2.123Z" style="fill: #a0332e"/>
      <path d="M49.53938,75.1706a1.78446,1.78446,0,0,0,.30664.05557c.62387.00571,1.24782.00364,1.87174.00417-.00172,1.3868-.00024,2.77361-.00863,4.16037-.00125.20656.071.2685.27264.26531.65419-.01035,1.30865-.00417,1.963-.00435l-.00939-.01113v2.14692H51.77707v2.28233c-.7745,0-1.51377,0-2.253-.00014.0035-.6548.00207-1.30957.01355-1.9641.00324-.185-.07108-.23327-.24257-.23108-.56677.00724-1.13377.00809-1.70051-.00033-.18118-.00269-.239.06659-.237.24035.00638.557.00894,1.11428-.00137,1.67118-.00381.20553.07027.27229.27258.27007.635-.007,1.2701.00158,1.90517.00413v4.40484H45.11587l.00674.01033v-4.42h-2.245l.00843.00806v-2.2343c.69034,0,1.30722-.00979,1.92351.005.23782.00569.32592-.05626.319-.30828-.01719-.62667-.00606-1.25411-.0063-1.88124l-.01122.00943c.62569-.00047,1.2516-.01086,1.87694.00367.23873.00554.32381-.05872.3171-.3086-.01672-.62349-.00551-1.24772-.00551-1.90623h2.24936V75.16218Z" style="fill: #a0332e"/>
      <path d="M78.30579,26.52565q.8946.01405,1.78921.02787c.1145.0017.229.00025.37034.00025,0,.64642.00823,1.25238-.0043,1.85791-.0046.22235.04859.31171.29184.30518.62439-.01676,1.24954-.0056,1.91679-.0056v-4.348h2.24V26.546h2.18176v2.14662c-.09563.00629-.19822.01847-.30085.01888-.52916.0021-1.05843.00669-1.58748-.00162-.18941-.003-.26065.063-.25778.25508.00833.55845.01305,1.11739-.00229,1.67555-.00657.23874.08153.29962.30682.298,1.21509-.00847,2.43026-.00389,3.6454-.00381h.37109v4.38415H87.18174c0-.32943,0-.66766,0-1.0059,0-.294-.01155-.58857.00376-.88176.011-.2115-.0723-.26476-.2718-.26363-1.2543.00709-2.50866.00352-3.763.00349-.1158,0-.23159,0-.39225,0v-1.4545c0-.71018,0-.71022-.70927-.71016-.43119,0-.86267.01-1.29341-.00369-.2238-.0071-.28336.08-.28208.292.00743,1.2249.00354,2.44987.00348,3.67481,0,.11516,0,.23032,0,.38973l-1.57959,0c-.579,0-.579,0-.579-.56715l0-3.469v-.39962c-.78279,0-1.5337,0-2.28506-.00031l.0061.00445c.01416-.23121.03871-.4618.04175-.69267.00654-.49669.002-.99352.002-1.51059h2.23207V26.5176Z" style="fill: #a0332e"/>
      <path d="M45.11587,88.46471c-.00758.51665-.0195,1.03329-.02175,1.55-.00367.83962-.001,1.67928-.001,2.51893l0,.32516h-2.2269l.00626.008v-2.203H34.06708V81.81759l-.01188.00964,4.419-.00021-.00758-.00784v2.24649c-.66276,0-1.279.0072-1.89492-.00392-.21427-.00387-.2938.05848-.28761.28266.01459.52882.02267,1.05917-.00238,1.5872-.0142.29932.07365.38723.37416.3751.60361-.02432,1.2089-.00723,1.85053-.00723v2.11858h2.20362V84.06313H42.886l-.00843-.00806v4.42h2.245Z" style="fill: #a0332e"/>
      <path d="M29.64465,92.94689V95.028H23.04417V92.94661c.60908,0,1.20362.00023,1.79817-.00009.38555-.00021.38609-.00057.38639-.38086.00046-.60525.00012-1.21051.00012-1.85436.5775,0,1.12295.00356,1.66833-.001.5578-.00466.50627.08509.50741-.49335q.00348-1.76391.00071-3.5278c0-.11547,0-.23093,0-.36489h4.38588v4.38288h2.22394v4.3247H31.85387v-2.085Z" style="fill: #a0332e"/>
      <path d="M42.87087,11.06247c-.11629-.0094-.23257-.02679-.34889-.027q-1.838-.003-3.676-.00123h-.37886v2.17628H36.30392c-.00551-.11792-.01534-.23151-.01544-.34512-.00113-1.22535.00076-2.45071-.003-3.676a2.81446,2.81446,0,0,0-.04953-.37256l-.0052.01024h2.17053V6.62528h-2.1265V4.496h6.57358V6.64646h2.22484V8.80223h-2.212v2.26832Z" style="fill: #a0332e"/>
      <path d="M60.59262,66.35993V64.18178c.39516,0,.7629.00583,1.13034-.00166.35772-.00729.71516-.0282,1.07272-.04314q.01665-.53874.03322-1.07747.01683-.56916.03237-1.13836l-.00685.00282h2.18784v2.23056H69.392V66.3201H67.24507v4.43881H62.817l.01118.00938V66.34866H60.584Z" style="fill: #a0332e"/>
      <path d="M91.5936,33.09529v-.33563c0-1.23454-.005-2.46913.00449-3.7036.00176-.22649-.05576-.30837-.29473-.30209-.61542.01616-1.23154.00541-1.89138.00541V26.52305H87.19012V24.36262c.12428-.0057.2382-.01537.35213-.01547,1.23454-.00115,2.46915-.00685,3.7036.00426.24593.00221.31941-.07342.31315-.31655-.01557-.60519-.00513-1.211-.00513-1.84045h2.17488V28.729h2.19v2.1984H93.79767v2.16788Z" style="fill: #a0332e"/>
      <path d="M45.12975,26.54749V24.29942h.34957c1.988,0,3.97594-.00433,5.96385.00546.25239.00124.33632-.05758.33321-.32391-.01437-1.23374-.00634-2.46774-.00633-3.70164v-.35717h2.19V17.72435h2.19205c0,.12728,0,.24169,0,.35609q-.00006,1.85087.00077,3.70171c.00014.117.01265.23392.01938.35111l.00843-.00907c-.73021.00023-1.46037.00023-2.22775.00023v4.32607c-.11961.011-.20417.025-.28883.0256q-2.14353.01593-4.28711.02839c-1.34131.00669-2.68264.00895-4.024.0144-.07761.00032-.15518.01177-.23254.01833Z" style="fill: #a0332e"/>
      <path d="M9.6468,28.71462h2.20089v2.174H5.37316V22.20078H7.451v2.09013H9.6468Z" style="fill: #a0332e"/>
      <path d="M34.05362,48.57521H31.88774v-.36049c0-1.95977-.00482-3.91957.00553-5.87929.0014-.26476-.06346-.35637-.34037-.3472-.6238.02067-1.24875.00649-1.89251.00649v-2.096h4.33612v4.25968h2.23375V42.09331h2.97769a1.76676,1.76676,0,0,1-.06292.20016c-.5781,1.30585-1.16125,2.60949-1.73295,3.91813a.30152.30152,0,0,1-.32781.20973c-.91125-.00654-1.82264.00318-2.73382-.00737-.22786-.00264-.30811.06114-.30208.29839C34.064,47.32661,34.05362,47.94153,34.05362,48.57521Z" style="fill: #a0332e"/>
      <path d="M11.956,39.83251c-.01309.389-.0306.77783-.03791,1.1669-.00641.34044-.00134.68111-.00134,1.04743H7.54617v2.186H9.67289v2.17706H7.52268v2.1646H5.37527V39.8646a.321.321,0,0,1,.08891-.03087q3.24958.001,6.49955.00506Z" style="fill: #a0332e"/>
      <path d="M51.75728,30.93893a2.32316,2.32316,0,0,0-.043.316c-.003,1.27447.00471,2.549-.00746,3.82338-.00249.25976.07484.33955.33363.33239.616-.017,1.23278-.00548,1.8722-.00548V36.458a14.31675,14.31675,0,0,0-8.77011.7922V35.41238h2.1588V28.80792H49.477c0,.42439,0,.83288,0,1.24137a5.1201,5.1201,0,0,1-.00361.55838c-.03088.28.066.37543.35457.36416.64584-.02523,1.293-.01715,1.93959-.02263Z" style="fill: #a0332e"/>
      <path d="M49.52146,66.35234v4.41137H45.12682l.0097.00834q-.00672-1.99927-.01339-3.99854c-.00041-.12645-.00005-.2529-.00005-.43741-.76794,0-1.51735,0-2.26726-.00034l.00666.00458c.01434-.25108.0386-.50145.04245-.75215.007-.45778.002-.91574.002-1.40651h2.17523v-2.078c.129.03442.21143.05169.29071.0783.54652.18344,1.08951.37805,1.6399.5489a.33735.33735,0,0,1,.28211.38958c-.01451.95942-.00614,1.91918-.00615,2.87882v.363h2.24258Z" style="fill: #a0332e"/>
      <path d="M51.76752,30.9492V28.80144h2.21982V26.553h2.1645v6.61381h2.12754v2.166H53.97523v-4.394c-.75968,0-1.48878,0-2.21791.00005Z" style="fill: #a0332e"/>
      <path d="M80.53629,44.15375V35.43088h4.31145V37.564H82.77391v2.20253h2.08032v2.21869H82.76v2.16853Z" style="fill: #a0332e"/>
      <path d="M49.5371,92.88h2.16916V90.733H56.1381v2.16823h2.20267v2.13029H49.54714V92.87079Z" style="fill: #a0332e"/>
      <path d="M9.67,64.12544h2.196v2.21019H9.71581v2.16785H7.54652V66.37365H5.372V64.20088H7.50947V61.96739H9.67Z" style="fill: #a0332e"/>
      <path d="M93.773,90.70948v2.16706h2.13475v2.15008h-6.4691v-4.3085q2.176,0,4.344.00018Z" style="fill: #a0332e"/>
      <path d="M14.20126,72.90876c-.40042.013-.80075.03106-1.20127.038-.97828.01686-1.95666.02782-2.935.04361-.08668.00139-.17307.02063-.26148.03085l.00366.00155V70.829c.5605,0,1.12608.002,1.69165-.00059.49871-.00228.44614.05238.44695-.433q.00306-1.83767.00068-3.67533v-.33681h2.20543v.33716q0,2.92555.00209,5.85113a2.468,2.468,0,0,0,.04649.33822Z" style="fill: #a0332e"/>
      <path d="M34.06708,81.81759H31.86459V83.969H29.67623V77.41633h2.15414l-.01128-.00872v2.25333H34.0552v2.16629Z" style="fill: #a0332e"/>
      <path d="M20.79473,57.45765V55.24616h-2.179V53.146h4.37356v2.14234h2.15626v2.16932Z" style="fill: #a0332e"/>
      <path d="M67.23905,92.87136h2.16686v-4.3109h2.1693v6.47H67.2466c0-.72562,0-1.44657.00018-2.16782Z" style="fill: #a0332e"/>
      <path d="M62.86127,61.92115H58.52745A1.73424,1.73424,0,0,1,59.88406,59.794a1.09305,1.09305,0,0,0,.75344-.58732c.345-.58.7296-1.13635,1.09353-1.70522.34792-.54382.69831-1.08633,1.03278-1.6384a1.06857,1.06857,0,0,1,1.06587-.57862c.38929.02675.78184.0062,1.17281.00644l-.01024-.01068c-.00011.71346-.00011,1.42714-.00011,2.17609-.11544.00742-.21808.01935-.32075.01973-.54816.00206-1.09642.00646-1.64446-.00147-.18855-.00272-.25889.06238-.2581.25452.00545,1.32146.00145,2.643.00616,3.96441a.748.748,0,0,0,.07784.23131Z" style="fill: #a0332e"/>
      <path d="M38.4771,37.57194H36.30039V35.38723c-.60193,0-1.16713.00221-1.7323-.00063-.54971-.00276-.48109.0636-.48431-.4858-.00356-.60748-.00263-1.215-.003-1.82393l-.00093.00229a1.2557,1.2557,0,0,0,.308.08684c1.22419.00622,2.44841.004,3.67263.004h.40763v4.41164Z" style="fill: #a0332e"/>
      <path d="M82.71132,70.69272V68.58109H80.573V66.37874h4.29026v4.314Z" style="fill: #a0332e"/>
      <path d="M25.24545,77.37835V73.02461H27.4184v.514c0,.47046.01108.94129-.00462,1.41123-.00792.23681.07737.30068.305.29551.60649-.01382,1.21351-.0047,1.848-.0047v2.13775Z" style="fill: #a0332e"/>
      <path d="M42.86623,92.85877v2.16515H36.32211c0-.65936-.00428-1.3219.00937-1.98408.00093-.0456.13451-.124.20856-.1266.3715-.01323.74371-.00644,1.11568-.00646q2.43734-.00006,4.87469-.0017a2.97859,2.97859,0,0,0,.34251-.03785Z" style="fill: #a0332e"/>
      <path d="M91.495,44.15113H89.37179V42.0574H87.2063v-2.153H91.495Z" style="fill: #a0332e"/>
      <path d="M95.92227,39.87546v6.461H93.85336v-6.461Z" style="fill: #a0332e"/>
      <path d="M38.46814,37.58164c.116.01038.23191.02968.34788.02982q2.46808.00292,4.93616.00131h.31224l.02431.06762-3.36309,2.58075c-.00128-.51435-.32053-.46941-.6306-.46433-.52658.00863-1.0534.00238-1.61817.00238,0-.76451,0-1.4956.00011-2.227Z" style="fill: #a0332e"/>
      <path d="M45.12682,70.76371c-.01123.48714-.024.97426-.033,1.46144-.00411.223-.0007.44616-.0007.68659h-4.357V70.78915h.35044q1.8344,0,3.66878-.00069c.12685-.00013.25368-.01085.38084-.01653Z" style="fill: #a0332e"/>
      <path d="M60.57557,11.06413h2.16889v4.374H60.58624c0-1.45577,0-2.91986-.00016-4.38391Z" style="fill: #a0332e"/>
      <path d="M20.73748,75.2465v2.07987H16.385V75.2465Z" style="fill: #a0332e"/>
      <path d="M38.49336,15.38009V13.31056h4.35706v2.06953Z" style="fill: #a0332e"/>
      <path d="M40.77782,33.257h4.29686v2.07986H40.77782Z" style="fill: #a0332e"/>
      <path d="M76.06128,90.7141V88.47471l2.24076,0-.01157-.0084,0,2.24454.00792-.00774c-.34948-.01648-.699-.04662-1.04844-.04584-.39857.0009-.79706.02936-1.19559.04584Z" style="fill: #a0332e"/>
      <path d="M22.9982,72.99439v2.15712H20.76689v-2.1574l-.00672.01065,2.24467.00012Z" style="fill: #a0332e"/>
      <path d="M78.31539,26.5176H76.1015V24.35022c.68821,0,1.36069-.00484,2.03271.01045.04686.00106.12757.15062.12935.2325.01174.53857.00426,1.07753.00776,1.61633a2.95292,2.95292,0,0,0,.03406.31647Z" style="fill: #a0332e"/>
      <path d="M7.5376,72.9379c.19053.01905.38074.04986.57164.05493.56488.015,1.13.01981,1.69652.02926l-.00221-.00091a1.08479,1.08479,0,0,0-.08682.27791c-.00886.50867-.00355,1.01757-.00508,1.52639-.00031.10491-.009.20978-.01446.3292H7.54749V72.92891Z" style="fill: #a0332e"/>
      <path d="M16.36678,73.00714c-.01276.42772-.02855.85537-.0372,1.28318-.00569.28164-.00107.56348-.00107.8627h-2.1274q0-1.123.00007-2.24414l-.00068.00089a1.41062,1.41062,0,0,0,.31261.0801c.62033.014,1.24092.017,1.86181.024Z" style="fill: #a0332e"/>
      <path d="M67.24655,11.0586H65.08984V8.91445h2.14755c0,.71345,0,1.43309.00011,2.1528Z" style="fill: #a0332e"/>
      <path d="M42.86125,11.07055h2.16259v2.15082H42.90693c0-.30552.00437-.60539-.001-.90509-.00757-.41821-.02245-.8363-.03461-1.25413Z" style="fill: #a0332e"/>
      <path d="M60.57888,26.5313h2.13695v2.14208H60.589c0-.71276,0-1.4323-.00008-2.15188Z" style="fill: #a0332e"/>
      <path d="M49.53131,66.3623V64.19706h2.1612V66.3522c-.73071,0-1.45083,0-2.171.00007Z" style="fill: #a0332e"/>
      <path d="M87.10238,66.36107h-2.132v-2.142h2.12328v2.14861Z" style="fill: #a0332e"/>
      <path d="M71.65337,44.23617H69.51821V42.09025h2.12514v2.15608Z" style="fill: #a0332e"/>
      <path d="M11.88867,24.28055h-2.156V22.19593h2.156Z" style="fill: #a0332e"/>
      <path d="M49.5274,11.069c-.586-.01157-1.172-.02582-1.758-.03377-.39163-.00531-.39181-.0013-.39191-.40422-.00012-.56661,0-1.13322,0-1.7183h2.14193q0,1.08385-.0002,2.16566Z" style="fill: #a0332e"/>
      <path d="M67.25634,48.63558H65.09159V46.49516h.65611c.36273,0,.7266.01778,1.08779-.0057.28813-.01873.40159.05362.383.36775-.029.48845-.00966.97988-.00605,1.47a2.99721,2.99721,0,0,0,.03391.31678Z" style="fill: #a0332e"/>
      <path d="M71.66482,70.75309H69.49646c0-.67777-.00382-1.33022.00714-1.98243a.223.223,0,0,1,.15795-.1499c.64352-.01066,1.2873-.0068,1.99269-.0068,0,.73275,0,1.44074.00027,2.1485Z" style="fill: #a0332e"/>
      <path d="M87.09362,66.36772H89.2604v2.13737c-.17248,0-.35368,0-.53488,0-.43137-.00007-.86333-.01375-1.29387.00507-.24319.01065-.29973-.08149-.29369-.30569.0137-.50943.00636-1.01949.00242-1.52925a2.66055,2.66055,0,0,0-.03749-.31456Z" style="fill: #a0332e"/>
      <path d="M62.81337,79.6683a1.63849,1.63849,0,0,0-.32692-.07028c-.59576-.007-1.19165-.00333-1.80756-.00333v-2.094h2.13066c0,.73053,0,1.45254-.00045,2.17541Z" style="fill: #a0332e"/>
      <path d="M93.788,68.62752V66.43986h2.11841v2.09633c-.6052,0-1.20757-.00412-1.80977.00395a1.24087,1.24087,0,0,0-.30938.08457Z" style="fill: #a0332e"/>
      <path d="M76.04271,37.679v2.09814H73.9501V37.679Z" style="fill: #a0332e"/>
      <path d="M53.94918,70.762H51.84355V68.63207h2.09538c0,.72064,0,1.4303.00005,2.14Z" style="fill: #a0332e"/>
      <path d="M49.54714,92.87079H47.3793c0-.669-.00381-1.31194.00707-1.95465a.22114.22114,0,0,1,.15629-.149c.64413-.01056,1.2885-.00677,1.9939-.00677,0,.72112,0,1.42058.00027,2.11982Z" style="fill: #a0332e"/>
      <path d="M45.13492,6.59286V4.50031H47.2676c0,.65221.00382,1.29624-.00722,1.94a.22206.22206,0,0,1-.15978.14592C46.45593,6.59665,45.811,6.59286,45.13492,6.59286Z" style="fill: #a0332e"/>
      <path d="M7.54749,72.92891H5.366V70.87017H7.537q0,1.03689.00028,2.068Z" style="fill: #a0332e"/>
      <path d="M95.91809,64.07249H93.84843V61.99224h2.06966Z" style="fill: #a0332e"/>
      <path d="M71.6208,6.58087H69.51868v-2.088H71.6208Z" style="fill: #a0332e"/>
      <path d="M69.48628,61.95779h2.07189V64.0862H69.48628Z" style="fill: #a0332e"/>
      <path d="M60.67741,33.25328h2.09438V35.339H60.67741Z" style="fill: #a0332e"/>
      <path d="M49.54889,75.16218H47.39663V73.07676h2.14209q0,1.04449.00033,2.09413Z" style="fill: #a0332e"/>
      <path d="M65.08516,73.06643h2.10269v2.0879H65.08516Z" style="fill: #a0332e"/>
      <path d="M58.33414,84.01658h-2.076V81.91186h2.076Z" style="fill: #a0332e"/>
      <path d="M87.09606,24.28649H84.96815V22.207h2.12791Z" style="fill: #a0332e"/>
      <path d="M7.45746,61.89614H5.38133V59.799H7.45746Z" style="fill: #a0332e"/>
      <path d="M25.15527,77.445v2.09881h-2.0782V77.445Z" style="fill: #a0332e"/>
      <path d="M20.73656,24.288H18.66682V22.19857h2.06974Z" style="fill: #a0332e"/>
      <path d="M14.09405,77.33663H12.0193V75.2575h2.07475Z" style="fill: #a0332e"/>
      <path d="M5.37688,75.2416H7.45041v2.08967H5.37688Z" style="fill: #a0332e"/>
      <path d="M18.60288,61.95757h2.07431v2.07886H18.60288Z" style="fill: #a0332e"/>
      <path d="M25.18462,19.87948H23.07851V17.77787h2.09572c0,.7104,0,1.41109,0,2.11181Z" style="fill: #a0332e"/>
      <path d="M82.62752,61.97335v2.06974H80.54816V61.97335Z" style="fill: #a0332e"/>
      <path d="M62.84769,4.48661h2.07383V6.56572H62.84769Z" style="fill: #a0332e"/>
      <path d="M23.06678,90.6244V88.55616h2.0807V90.6244Z" style="fill: #a0332e"/>
      <path d="M87.0396,46.40014H84.96475V44.31993H87.0396Z" style="fill: #a0332e"/>
      <path d="M51.84461,4.49306h2.07186V6.57H51.84461Z" style="fill: #a0332e"/>
      <path d="M93.85075,35.45073H95.922v2.048H93.85075Z" style="fill: #a0332e"/>
      <path d="M23.07239,84.0849h2.029v2.10336h-2.029Z" style="fill: #a0332e"/>
      <path d="M51.84454,86.31853c.32267,0,.64291-.00593.96283.00157.35806.0084.71584.029,1.07374.04423.01192.35929.02667.71852.03474,1.0779.00527.23478-.00931.47036.00387.70451.0111.19724-.04635.27984-.2601.27551-.59577-.0121-1.19194-.00421-1.81508-.00421Z" style="fill: #a0332e"/>
      <path d="M20.68472,39.849v2.078H18.65419a1.00059,1.00059,0,0,1-.03915-.1986c-.00352-.5472-.00907-1.09462.00565-1.64144.00218-.08075.10579-.226.16554-.22762C19.40941,39.84251,20.03322,39.849,20.68472,39.849Z" style="fill: #a0332e"/>
      <path d="M91.457,64.0467H89.42594V61.99064H91.457Z" style="fill: #a0332e"/>
      <path d="M36.29976,57.46062V55.34876c.60691,0,1.20674-.00682,1.8059.01033.06122.00175.17272.15036.16839.22547-.02585.44735-.07788.89323-.12314,1.3394a.57589.57589,0,0,1-.57487.52654C37.16348,57.49026,36.74422,57.46062,36.29976,57.46062Z" style="fill: #a0332e"/>
      <path d="M51.77139,64.08813c0-.24994-.00615-.49205.00487-.73337.00239-.05215.06006-.139.10329-.1465.66146-.11535,1.32476-.2202,2.01456-.33185v1.21172Z" style="fill: #a0332e"/>
      <path d="M36.21408,50.87209a1.6312,1.6312,0,0,0,.07034-.32627c.007-.59512.00333-1.19036.00333-1.807h.73657v2.12941c-.27514,0-.54617,0-.81807-.00046Z" style="fill: #a0332e"/>
      <path d="M58.33445,37.66918v.73852l-1.22966-.73852Z" style="fill: #a0332e"/>
      <path d="M82.62459,79.7185v2.02824H80.557V79.7185Z" style="fill: #a0332e"/>
      <path d="M53.40122,55.26914a8.41174,8.41174,0,0,1-3.09142-1.0184A9.7211,9.7211,0,0,1,47.37036,51.711c-.75575-.92307-1.48784-1.87227-2.14973-2.86378a3.14427,3.14427,0,0,1,.40059-4.11228,2.00417,2.00417,0,0,1,.858-.52481,1.06216,1.06216,0,0,1,1.21543.56412,6.246,6.246,0,0,1,.34914.74118c.12616.27505.23636.55861.37951.82446a1.42524,1.42524,0,0,1-.30007,1.88526.7252.7252,0,0,0-.13728,1.13047,8.37759,8.37759,0,0,0,3.52751,3.05848.86362.86362,0,0,0,1.23721-.28484c.19113-.22307.38589-.44359.58894-.65575a.76246.76246,0,0,1,.91269-.19865,16.5913,16.5913,0,0,1,1.74143.84161,1.227,1.227,0,0,1,.3655,1.89706A3.27134,3.27134,0,0,1,53.40122,55.26914Z" style="fill: #a0332e"/>
      <path d="M16.26831,84.13946V90.615H9.79621V84.13946Z" style="fill: #a0332e"/>
      <path d="M16.2793,15.39479H9.7943V8.92451c.09335-.0062.17931-.01685.26527-.01689q2.96991-.00141,5.93982-.00342c.1913-.00042.307.01289.30587.26-.00887,2.00931-.00487,4.01868-.00578,6.028C16.29945,15.24961,16.28838,15.307,16.2793,15.39479Z" style="fill: #a0332e"/>
      <path d="M91.48957,15.401H84.96579l0-.33144c0-1.93982.00463-3.87965-.00544-5.81942-.00137-.26275.0599-.35155.33943-.34979q2.939.0185,5.87816.001c.25494-.00131.33444.06243.33294.32644-.011,1.95934-.00579,3.91878-.00653,5.87819C91.50433,15.19268,91.49591,15.27937,91.48957,15.401Z" style="fill: #a0332e"/>
    </g>
  </g>
</svg>
