<?xml version="1.0" encoding="utf-8"?>
<!-- Generator: Adobe Illustrator 24.1.3, SVG Export Plug-In . SVG Version: 6.00 Build 0)  -->
<svg version="1.1" id="Layer_1" xmlns="http://www.w3.org/2000/svg" xmlns:xlink="http://www.w3.org/1999/xlink" x="0px" y="0px"
	 viewBox="0 0 35.8 35.8" style="enable-background:new 0 0 35.8 35.8;" xml:space="preserve">
<style type="text/css">
	.st0{fill:#363636;}
	.st1{fill-rule:evenodd;clip-rule:evenodd;fill:#363636;}
	.st2{stroke:#000000;stroke-width:0.2;}
	.st3{stroke:#000000;stroke-width:0.3;}
</style>
<g id="noun_Checklist_2019044" transform="translate(3.465 304.662)">
	<g id="Group_238" transform="translate(0 0)">
		<g id="Group_226" transform="translate(11.387 3.596)">
			<path id="Path_186" class="st2" d="M-0.2-296.2h7.1c0.2,0,0.4-0.2,0.4-0.4c0,0,0,0,0-0.1v-3.4c0-0.2-0.2-0.4-0.4-0.4
				c0,0,0,0-0.1,0h-7.1c-0.2,0-0.4,0.2-0.4,0.4c0,0,0,0,0,0.1v3.4C-0.6-296.4-0.4-296.2-0.2-296.2z M0.3-299.6h6.2v2.5H0.3V-299.6z"
				/>
		</g>
		<g id="Group_227" transform="translate(3.246 3.596)">
			<path id="Path_187" class="st2" d="M4.6-300.5H0.7c-0.2,0-0.4,0.2-0.4,0.4s0.2,0.4,0.4,0.4h3.9c0.2,0,0.4-0.2,0.4-0.4
				c0,0,0,0,0-0.1C5-300.3,4.8-300.5,4.6-300.5z"/>
		</g>
		<g id="Group_228" transform="translate(3.246 7.442)">
			<path id="Path_188" class="st2" d="M4.6-300.9H0.7c-0.2,0-0.4,0.2-0.4,0.4c0,0.2,0.2,0.4,0.4,0.4h3.9c0.2,0,0.4-0.2,0.4-0.4
				C5-300.7,4.8-300.9,4.6-300.9z"/>
		</g>
		<g id="Group_229" transform="translate(3.396 15.283)">
			<path id="Path_189" class="st2" d="M0.4-291.9c0.2,0.2,0.4,0.2,0.6,0c0,0,0,0,0,0l0.8-0.8l0.8,0.8c0.2,0.2,0.5,0.2,0.6,0
				c0.2-0.2,0.2-0.5,0-0.6l0,0l-0.8-0.8l0.8-0.8c0.2-0.2,0.2-0.5,0-0.6c-0.2-0.2-0.5-0.2-0.6,0l-0.8,0.8L1-294.7
				c-0.2-0.2-0.5-0.2-0.6,0c-0.2,0.2-0.2,0.5,0,0.6l0.8,0.8l-0.8,0.8C0.2-292.4,0.2-292.1,0.4-291.9C0.4-291.9,0.4-291.9,0.4-291.9z
				"/>
		</g>
		<g id="Group_230" transform="translate(3.162 20.227)">
			<path id="Path_190" class="st2" d="M3-304.8l-1.6,1.6l-0.3-0.5c-0.1-0.2-0.4-0.3-0.6-0.1c-0.2,0.1-0.2,0.4-0.1,0.6l0.6,1
				c0.1,0.2,0.4,0.3,0.6,0.1c0,0,0,0,0,0l2-2c0.2-0.2,0.2-0.5,0-0.6C3.4-304.9,3.2-304.9,3-304.8L3-304.8L3-304.8z"/>
		</g>
		<g id="Group_232" transform="translate(9.489 11.637)">
			<path id="Path_192" class="st2" d="M0-299.6h4.7c0.2,0,0.4-0.2,0.4-0.4s-0.2-0.4-0.4-0.4H0c-0.2,0-0.4,0.2-0.4,0.4
				S-0.2-299.6,0-299.6z"/>
		</g>
		<g id="Group_233" transform="translate(9.489 16.482)">
			<path id="Path_193" class="st2" d="M5.3-295H0c-0.2,0-0.4,0.2-0.4,0.4s0.2,0.4,0.4,0.4h5.3c0.2,0,0.4-0.2,0.4-0.4
				S5.5-295,5.3-295z"/>
		</g>
		<g id="Group_234" transform="translate(9.489 21.326)">
			<path id="Path_194" class="st2" d="M0-304.1h2.6c0.2,0,0.4-0.2,0.4-0.4S2.9-305,2.7-305H0c-0.2,0-0.4,0.2-0.4,0.4c0,0,0,0,0,0.1
				C-0.4-304.3-0.2-304.1,0-304.1z"/>
		</g>
		<g id="Group_236" transform="translate(3.262 10.538)">
			<path id="Path_196" class="st2" d="M3-300.2l-1.6,1.6l-0.3-0.5c-0.1-0.2-0.4-0.3-0.6-0.2c-0.2,0.1-0.3,0.4-0.2,0.6c0,0,0,0,0,0
				l0.6,1c0.1,0.2,0.4,0.3,0.6,0.1c0,0,0,0,0,0l2-2c0.2-0.2,0.2-0.5,0-0.6C3.4-300.4,3.1-300.4,3-300.2L3-300.2L3-300.2z"/>
		</g>
		<g id="Group_237">
			<path id="Path_197" class="st2" d="M28.1-280.3l-1.3-5c-0.2-0.7-0.9-1.2-1.6-1.1c-0.2,0.1-0.5,0.2-0.7,0.3
				c-0.4-0.6-1.3-0.8-1.9-0.3c-0.1,0-0.1,0.1-0.2,0.1c-0.2-0.3-0.4-0.4-0.7-0.5c-0.1,0-0.1,0-0.2,0v-12.9c0-0.2-0.2-0.4-0.4-0.4
				c0,0,0,0-0.1,0h-20c-0.2,0-0.4,0.2-0.4,0.4v25.8c0,0.2,0.2,0.4,0.4,0.4c0,0,0,0,0.1,0h20c0.2,0,0.4-0.2,0.4-0.4c0,0,0,0,0-0.1
				v-1.3c0.8,0.4,1.7,0.5,2.4,0.1l1.6-0.5l0,0C27.6-276.2,28.6-278.3,28.1-280.3z M20.7-274.3H1.5v-24.9h19.1v12.6
				c-0.1,0-0.1,0.1-0.2,0.1l-0.8-3.1c-0.2-0.7-0.9-1.2-1.6-1.1c-0.1,0-0.3,0.1-0.4,0.2c-0.6,0.4-0.9,1.3-0.6,2l1.4,5.3
				c-1.1-0.9-3.2-1.6-3.8-0.4c-0.3,0.6-0.1,1.4,0.4,1.9l0,0c3.7,2.9,4.2,4.7,5.6,6L20.7-274.3L20.7-274.3z M25.4-276.4l-1.6,0.5
				c-1.8,0.6-2.7-0.8-3.8-2.2c-2.1-2.7-3.6-4.1-4.4-4.5c-0.2-0.2-0.3-0.5-0.2-0.8c0.3-0.5,1.9-0.2,3.6,1.9c0.1,0.2,0.3,0.2,0.5,0.1
				c0.2-0.1,0.3-0.3,0.2-0.5c-1.4-5.4-1.9-7.2-1.9-7.2c0,0-0.1-0.6,0.2-0.8c0.2-0.1,0.5-0.1,0.6,0.2c0,0.1,0.1,0.1,0.1,0.2l1.2,4.4
				l0,0c0.1,0.2,0.3,0.4,0.5,0.3c0.2-0.1,0.4-0.3,0.3-0.5c0,0,0,0,0,0l0,0c-0.2-0.7,0.8-1.1,1-0.4l0.2,0.8l0,0
				c0.1,0.2,0.3,0.4,0.5,0.3c0.2-0.1,0.4-0.3,0.3-0.5c0,0,0,0,0,0l0,0c-0.2-0.8,0.8-1.1,1-0.4l0.2,0.8l0,0c0.1,0.2,0.3,0.4,0.5,0.3
				c0.2-0.1,0.4-0.3,0.3-0.5l0,0c-0.2-0.8,0.8-1.1,1-0.4l1.3,5C27.7-278.6,26.9-276.9,25.4-276.4L25.4-276.4z"/>
		</g>
	</g>
</g>
</svg>
