<?xml version="1.0" encoding="utf-8"?>
<!-- Generator: Adobe Illustrator 27.0.0, SVG Export Plug-In . SVG Version: 6.00 Build 0)  -->
<svg version="1.1" id="Layer_1" xmlns="http://www.w3.org/2000/svg" xmlns:xlink="http://www.w3.org/1999/xlink" x="0px" y="0px"
	 viewBox="0 0 1007 237" style="enable-background:new 0 0 1007 237;" xml:space="preserve">
<style type="text/css">
	.st0{fill:#6B717C;}
	.st1{fill:none;stroke:#FFFFFF;stroke-width:2;stroke-linecap:round;stroke-linejoin:round;}
	.st2{fill:#FFFFFF;}
	.st3{font-family:'OpenSans';}
	.st4{font-size:26px;}
	.st5{font-size:16px;}
	.st6{opacity:0.8;fill:#FFFFFF;enable-background:new    ;}
</style>
<path class="st0" d="M11.5,0h984c6.4,0,11.5,5.1,11.5,11.5v214c0,6.4-5.1,11.5-11.5,11.5h-984C5.1,237,0,231.9,0,225.5v-214
	C0,5.1,5.1,0,11.5,0z"/>
<polyline class="st1" points="175,0 228,118.5 175,237 "/>
<polyline class="st1" points="385.8,0 438.8,118.5 385.8,237 "/>
<polyline class="st1" points="697,0 750,118.5 697,237 "/>
<text transform="matrix(1 0 0 1 29.5234 83.7834)" class="st2 st3 st4">Application </text>
<text transform="matrix(1 0 0 1 29.5234 114.9836)" class="st2 st3 st4">Timeline</text>
<text transform="matrix(1 0 0 1 29.5234 146.7834)" class="st2 st3 st5">OPEN</text>
<text transform="matrix(1 0 0 1 29.5234 173.7834)" class="st2 st3 st5">Closes: 31 Mar 2023</text>
<text transform="matrix(1 0 0 1 250.8118 162.0835)" class="st2 st3 st5">Exam: 30 Apr 2023</text>
<text transform="matrix(1 0 0 1 777.5234 167.0835)" class="st2 st3 st5">Term Starts: 2 Jun 2023</text>
<text transform="matrix(1 0 0 1 252.8118 101.0835)" class="st2 st3 st4">Qualifier </text>
<text transform="matrix(1 0 0 1 252.8118 132.2837)" class="st2 st3 st4">Exam</text>
<text transform="matrix(1 0 0 1 463.7703 168.0835)" class="st2 st3 st5">Opens: 16 May 2023</text>
<text transform="matrix(1 0 0 1 463.7703 117.0835)" class="st6 st3 st5">Only for those who </text>
<text transform="matrix(1 0 0 1 463.7703 136.2837)" class="st2 st3 st5">clear Qualifier Exam.</text>
<text transform="matrix(1 0 0 1 777.5234 136.0835)" class="st6 st3 st5">Only for those who Register.</text>
<text transform="matrix(1 0 0 1 463.7703 195.0835)" class="st2 st3 st5">Closes: 17 May 2023</text>
<text transform="matrix(1 0 0 1 464.6686 59.0835)" class="st2 st3 st4">Course </text>
<text transform="matrix(1 0 0 1 464.7703 90.2837)" class="st2 st3 st4">Registration</text>
<text transform="matrix(1 0 0 1 776.5234 81.0835)" class="st2 st3 st4">Commencement</text>
<text transform="matrix(1 0 0 1 776.5234 112.2837)" class="st2 st3 st4">of Classes</text>
</svg>
