<?xml version="1.0" encoding="UTF-8"?>
<svg id="Layer_1" data-name="Layer 1" xmlns="http://www.w3.org/2000/svg" viewBox="0 0 32.90629 24.13755">
  <path d="m30.85184,3.89522c-.44685.00115-.88111.14788-1.23691.41819-.35583.27009-.614.64886-.73526,1.07897h-2.39312c-.13596.00069-.26619.05503-.36203.15155l-3.44621,3.44345h-4.40891c-.28361,0-.51357.22996-.51357.51357v4.87892h-4.87892v-6.93292h8.21714c.14192.00023.27765-.05846.37486-.16187l3.595-3.82361v.00023c.14054-.14949.17861-.36798.09721-.55599-.08162-.18823-.2671-.30974-.47207-.30952h-11.16533c-.13802,0-.27031.05548-.36707.15407l-3.5771,3.66954h-5.48488c-.0995-.45763-.35239-.86732-.71648-1.16149-.36431-.29438-.81825-.45533-1.28645-.45625-.51724-.00481-1.01752.18388-1.40267.52916S.06176,6.15341.01046,6.6681c-.05159.51472.09148,1.03014.40054,1.44487.30929.41453.76232.69857,1.27043.79624.50807.09767,1.03401.0016,1.47492-.26894s.7646-.69629.9077-1.19336h5.73134c.13825.00023.27054-.05548.36729-.15407l3.57686-3.66954h9.75785l-2.62426,2.79647h-8.51002c-.28361,0-.51357.22996-.51357.51357v4.10857h-4.68887c-.16829-.65778-.64792-1.19131-1.28416-1.42837-.63624-.23684-1.34814-.14742-1.90573.24005-.55759.38724-.89003,1.02303-.89003,1.70189s.33245,1.31463.89003,1.70189c.55759.38747,1.26949.47689,1.90573.24005.63624-.23707,1.11589-.77059,1.28416-1.42837h4.68887v2.82464c0,.13619.05411.26688.1504.36317s.22698.1504.36317.1504h5.3925v2.82464c0,.13619.05411.26688.1504.36317s.22698.1504.36317.1504h4.9071l1.38664,1.54071h-10.45631l-3.44873-3.20204c-.09515-.08781-.21987-.13642-.34918-.13619h-6.24502c-.188-.65226-.68367-1.17112-1.3266-1.38893-.64287-.21781-1.35178-.10684-1.89745.29691C.29395,16.25989-.01949,16.9053.00094,17.58392c.02041.67844.37188,1.30412.94069,1.67436.56883.3705,1.28322.4386,1.91189.18273.62867-.25587,1.09223-.80358,1.24085-1.466h6.01142l3.44873,3.20204c.09515.08781.21987.13642.34918.13619h11.81213c.20313.00046.3877-.11876.47047-.30424.08277-.18571.04838-.4026-.08781-.55346l-2.31107-2.56786c-.09767-.10822-.23684-.16989-.38265-.16943h-4.62214v-7.70357h4.10857c.13596-.00069.26619-.05503.36202-.15155l3.44621-3.44345h2.14919c.1183.50371.42232.94391.8513,1.23327.42874.28934.95102.40604,1.4623.32694.51127-.07887.97397-.34804,1.29537-.75316.32167-.40535.47849-.91686.43929-1.43272-.03943-.51587-.27169-.99803-.65092-1.34996-.37921-.35193-.87718-.54773-1.39445-.54865l.00033-.0002ZM2.09186,7.91668c-.27811.00459-.54682-.10157-.74629-.29554-.19947-.19397-.31365-.45923-.31662-.73755-.00321-.27811.10455-.54613.29943-.74447.19511-.19855.4613-.3109.73942-.3125.27811-.00183.54567.10776.74283.30379.1974.19603.30837.4629.30837.74101.00481.27558-.10134.54154-.29438.73802-.19328.19649-.45717.30723-.73273.30723h-.00002Zm3.08143,4.6836c-.27811.00481-.54682-.10134-.74629-.2953-.19947-.19396-.31365-.45923-.31662-.73755-.00321-.27811.10455-.54613.29943-.74471.19511-.19832.4613-.3109.73942-.3125.27811-.0016.54567.10776.74283.30402.1974.19603.30837.4629.30837.74101.00481.27559-.10134.54131-.29438.73802-.19328.19649-.45717.30723-.73273.307h-.00002Zm-3.08143,5.96507c-.27811.00481-.54682-.10157-.74629-.29553-.19947-.19374-.31365-.45923-.31662-.73731-.00321-.27834.10455-.54613.29943-.74471.19511-.19832.4613-.3109.73942-.3125.27811-.0016.54567.10776.74283.30379.1974.19626.30837.4629.30837.74124.00481.27536-.10134.54131-.29438.73778-.19328.19649-.45717.30723-.73273.30723h-.00002ZM30.85184,7.00969c-.27811.00481-.54682-.10157-.74629-.29554-.19946-.19374-.31365-.45923-.31662-.73731-.00321-.27834.10454-.54613.29943-.74471.19511-.19832.4613-.3109.73943-.3125.27811-.0016.54567.10776.74283.30379.1974.19626.30837.4629.30837.74124.00481.27536-.10134.54132-.29439.73778-.19328.19649-.45717.30723-.73273.30723h-.00003Z"/>
  <path d="m23.14828,12.58249c.28361,0,.51357-.22996.51357-.51357s-.22996-.51357-.51357-.51357h-2.56786c-.28361,0-.51357.22996-.51357.51357v3.595c0,.13619.05411.26688.1504.36317s.22698.1504.36317.1504h3.87497l1.64343,1.87955c.0979.11165.23936.17517.3877.17471h1.87955c.1864.65273.68073,1.17294,1.32313,1.39239.6424.21942,1.35154.11005,1.89816-.29232.54682-.40238.86163-1.0471.84302-1.72572-.0188-.67862-.36867-1.305-.93658-1.67688-.56791-.37188-1.28211-.44181-1.91142-.18755-.62938.25449-1.09435.80088-1.24449,1.463h-1.61526l-1.64343-1.87955c-.09836-.11235-.24097-.17608-.39022-.17471h-3.595v-2.56786l2.05428-.00007Zm7.18999,4.03403c.27811-.00481.54682.10157.74629.29553.19946.19374.31365.45923.31662.73731.00321.27834-.10454.54636-.29943.74471-.19511.19855-.4613.3109-.73943.3125-.27811.0016-.54567-.10776-.74283-.30379-.1974-.19626-.30837-.4629-.30837-.74101-.00481-.27559.10134-.54154.29439-.73802.19328-.19649.45717-.30723.73273-.30723h.00003Z"/>
  <path d="m32.39256,0H12.87686c-.13069-.00023-.25633.04929-.3517.13871l-3.95978,3.71309h-2.15447l-1.64847-1.62553c-.09561-.09469-.22469-.14834-.3595-.1488H.55114c-.28361,0-.51357.22996-.51357.51357s.22996.51357.51357.51357h3.64131l1.64847,1.62553v-.00023c.09561.09492.22469.14857.3595.14903h2.56786c.13069.00023.25633-.04929.35171-.13871l3.95978-3.71309h19.31262c.28361,0,.51357-.22996.51357-.51357S32.67599,0,32.39238,0h.00017Z"/>
  <path d="m32.39256,23.1104H13.07994l-3.95978-3.71309c-.09538-.08941-.22102-.13894-.35171-.13871h-2.56786c-.13573,0-.26572.05342-.36202.14903l-1.64847,1.62553-3.63878-.00023c-.28361,0-.51357.22996-.51357.51357s.22996.51357.51357.51357h3.85178c.13573.00023.26572-.05342.36202-.1488l1.64595-1.62553h2.15447l3.95954,3.71309h.00023c.09538.08941.22102.13894.3517.13871h19.5157c.28361,0,.51357-.22996.51357-.51357s-.22996-.51357-.51357-.51357h-.00017Z"/>
</svg>