<?xml version="1.0" encoding="UTF-8"?>
<svg id="Layer_1" data-name="Layer 1" xmlns="http://www.w3.org/2000/svg" viewBox="0 0 32.90629 30.66961">
  <g>
    <path d="m28.43507,12.46433c0,.30405.18125.57227.36838.8118.16949.21672.27036.48955.27036.78598,0,.70559-.57191,1.27749-1.27749,1.27749s-1.27749-.57191-1.27749-1.27749c0-.29638.10105-.56926.27054-.78598.18713-.23953.36821-.50776.36821-.8118v-1.51347c0-.3527.28604-.63875.63875-.63875.35288,0,.63875.28604.63875.63875v1.51347Zm-11.07149,0c0,.30405.18108.57227.36821.8118.16949.21672.27054.48955.27054.78598,0,.70559-.57191,1.27749-1.27749,1.27749s-1.27749-.57191-1.27749-1.27749c0-.29638.10087-.56926.27036-.78598.18713-.23953.36838-.50776.36838-.8118v-1.51347c0-.3527.28587-.63875.63875-.63875.3527,0,.63875.28604.63875.63875v1.51347Zm5.53565,0c0,.30405.18108.57227.36821.8118.16949.21672.27054.48955.27054.78598,0,.70559-.57191,1.27749-1.27749,1.27749s-1.27749-.57191-1.27749-1.27749c0-.29638.10087-.56926.27036-.78598.18713-.23953.36838-.50776.36838-.8118v-1.51347c0-.3527.28587-.63875.63875-.63875.3527,0,.63875.28604.63875.63875v1.51347Z" style="fill-rule: evenodd;"/>
    <path d="m29.58225,12.78461c0-.23507.19052-.42577.42577-.42577h2.47251c.23525,0,.42577.1907.42577.42577v17.45923c0,.23525-.19052.42577-.42577.42577H12.04063c-.23525,0-.42577-.19052-.42577-.42577V12.78461c0-.23507.19052-.42577.42577-.42577h2.47251c.23525,0,.42577.1907.42577.42577v.42595c0,.23507-.19052.42577-.42577.42577h-1.19501c-.23525,0-.42577.1907-.42577.42577v3.83248c0,.23525.19052.42595.42577.42595h17.88491c.23525,0,.42577-.1907.42577-.42595v-3.83248c0-.23507-.19052-.42577-.42577-.42577h-1.19501c-.23525,0-.42577-.1907-.42577-.42577v-.42595Zm-8.8466.42595c0,.23507-.1907.42577-.42577.42577h-1.53849c-.23507,0-.42577-.1907-.42577-.42577v-.42595c0-.23507.1907-.42577.42577-.42577h1.53849c.23507,0,.42577.1907.42577.42577v.42595Zm5.42142,0c0,.23507-.1907.42577-.42577.42577h-1.53849c-.23507,0-.42577-.1907-.42577-.42577v-.42595c0-.23507.1907-.42577.42577-.42577h1.53849c.23507,0,.42577.1907.42577.42577v.42595Zm-13.26462,6.81315c0-.23525.19052-.42577.42577-.42577h17.88491c.23525,0,.42577.19052.42577.42577v8.94245c0,.23525-.19052.42577-.42577.42577H13.31822c-.23525,0-.42577-.19052-.42577-.42577v-8.94245Z" style="fill-rule: evenodd;"/>
    <path d="m29.49977,22.57888c0,.47035-.3814.85172-.85172.85172s-.85172-.3814-.85172-.85172.3814-.85172.85172-.85172.85172.3814.85172.85172Zm-10.43302.85172c.47035,0,.85172-.3814.85172-.85172s-.3814-.85172-.85172-.85172-.85172.3814-.85172.85172.3814.85172.85172.85172Zm0,3.83248c.47035,0,.85172-.3814.85172-.85172s-.3814-.85172-.85172-.85172-.85172.3814-.85172.85172.3814.85172.85172.85172Zm4.04546-.85172c0,.47035-.3814.85172-.85172.85172s-.85172-.3814-.85172-.85172.3814-.85172.85172-.85172.85172.3814.85172.85172Zm2.34201.85172c.47035,0,.85172-.3814.85172-.85172s-.3814-.85172-.85172-.85172-.85172.3814-.85172.85172.3814.85172.85172.85172Zm-2.34201-4.6843c0,.47035-.3814.85172-.85172.85172s-.85172-.3814-.85172-.85172.3814-.85172.85172-.85172.85172.3814.85172.85172Zm2.34201.85172c.47035,0,.85172-.3814.85172-.85172s-.3814-.85172-.85172-.85172-.85172.3814-.85172.85172.3814.85172.85172.85172Zm-9.5812,3.83248c.47035,0,.85172-.3814.85172-.85172s-.3814-.85172-.85172-.85172-.85172.3814-.85172.85172.3814.85172.85172.85172Z" style="fill-rule: evenodd;"/>
    <path d="m8.30234,12.90743c.47035,0,.85172-.3814.85172-.85172s-.3814-.85172-.85172-.85172-.85172.3814-.85172.85172.3814.85172.85172.85172Zm0,3.83248c.47035,0,.85172-.3814.85172-.85172s-.3814-.85172-.85172-.85172-.85172.3814-.85172.85172.3814.85172.85172.85172Zm-3.19373-.00009c.47035,0,.85172-.3814.85172-.85172s-.3814-.85172-.85172-.85172-.85172.3814-.85172.85172.3814.85172.85172.85172Z" style="fill-rule: evenodd;"/>
  </g>
  <g>
    <path d="m16.8172,2.15222c0,.30405.18125.57227.36838.8118.16949.21672.27036.48955.27036.78598,0,.70559-.57191,1.27749-1.27749,1.27749s-1.27749-.57191-1.27749-1.27749c0-.29638.10105-.56926.27054-.78598.18713-.23953.36821-.50776.36821-.8118V.63875c0-.3527.28604-.63875.63875-.63875.35288,0,.63875.28604.63875.63875v1.51347Zm-11.07149,0c0,.30405.18108.57227.36821.8118.16949.21672.27054.48955.27054.78598,0,.70559-.57191,1.27749-1.27749,1.27749s-1.27749-.57191-1.27749-1.27749c0-.29638.10087-.56926.27036-.78598.18713-.23953.36838-.50776.36838-.8118V.63875c0-.3527.28587-.63875.63875-.63875.3527,0,.63875.28604.63875.63875v1.51347Zm5.53565,0c0,.30405.18108.57227.36821.8118.16949.21672.27054.48955.27054.78598,0,.70559-.57191,1.27749-1.27749,1.27749s-1.27749-.57191-1.27749-1.27749c0-.29638.10087-.56926.27036-.78598.18713-.23953.36838-.50776.36838-.8118V.63875c0-.3527.28587-.63875.63875-.63875.3527,0,.63875.28604.63875.63875v1.51347Z" style="fill-rule: evenodd;"/>
    <path d="m14.11964,2.05238h-1.54456c-.23167,0-.42469.18022-.42469.42477v.42477c0,.23167.19302.42469.42469.42469h1.54456c.23167,0,.42477-.19302.42477-.42469v-.42477c0-.24456-.1931-.42477-.42477-.42477Zm-5.4316,0h-1.53167c-.23167,0-.42477.18022-.42477.42477v.42477c0,.23167.1931.42469.42477.42469h1.53167c.24456,0,.42469-.19302.42469-.42469v-.42477c0-.24456-.18014-.42477-.42469-.42477Zm12.17608,0h-2.47124c-.23167,0-.42477.18022-.42477.42477v.42477c0,.23167.1931.42469.42477.42469h1.19701c.23167,0,.42477.1931.42477.42477v3.83566c0,.23167-.1931.42469-.42477.42469H1.699c-.23175,0-.42477-.19302-.42477-.42469v-3.83566c0-.23167.19302-.42477.42477-.42477h1.19701c.23167,0,.42469-.19302.42469-.42469v-.42477c0-.24456-.19302-.42477-.42469-.42477H.42469c-.23167,0-.42469.18022-.42469.42477v17.45331c0,.23167.19302.42477.42469.42477h9.35596v-1.27423H1.699c-.23175,0-.42477-.1931-.42477-.42477v-8.94548c0-.23167.19302-.42477.42477-.42477h17.89088c.23167,0,.42477.1931.42477.42477v.82504h1.27423V2.47715c0-.24456-.1931-.42477-.42477-.42477Z" style="fill-rule: evenodd;"/>
    <ellipse cx="20.65177" cy="10.53578" rx=".63712" ry=".61844"/>
    <circle cx="9.74985" cy="19.71811" r=".63712"/>
  </g>
</svg>