<?xml version="1.0" encoding="UTF-8"?>
<svg xmlns="http://www.w3.org/2000/svg" xmlns:xlink="http://www.w3.org/1999/xlink" viewBox="0 0 24 24" width="24px" height="24px">
<g id="surface57821129">
<path style=" stroke:none;fill-rule:nonzero;fill:rgb(62.7451%,20%,17.647059%);fill-opacity:1;" d="M 15 3.75 C 14.585938 3.75 14.25 4.085938 14.25 4.5 C 14.25 4.914062 14.585938 5.25 15 5.25 L 17.691406 5.25 L 11.46875 11.46875 C 11.175781 11.761719 11.175781 12.238281 11.46875 12.53125 C 11.617188 12.675781 11.808594 12.75 12 12.75 C 12.191406 12.75 12.382812 12.675781 12.53125 12.53125 L 18.75 6.308594 L 18.75 9 C 18.75 9.414062 19.085938 9.75 19.5 9.75 C 19.914062 9.75 20.25 9.414062 20.25 9 L 20.25 4.5 C 20.25 4.085938 19.914062 3.75 19.5 3.75 Z M 6.75 4.5 C 5.507812 4.5 4.5 5.507812 4.5 6.75 L 4.5 17.25 C 4.5 18.492188 5.507812 19.5 6.75 19.5 L 17.25 19.5 C 18.492188 19.5 19.5 18.492188 19.5 17.25 L 19.5 12.75 C 19.5 12.335938 19.164062 12 18.75 12 C 18.335938 12 18 12.335938 18 12.75 L 18 17.25 C 18 17.664062 17.664062 18 17.25 18 L 6.75 18 C 6.335938 18 6 17.664062 6 17.25 L 6 6.75 C 6 6.335938 6.335938 6 6.75 6 L 11.25 6 C 11.664062 6 12 5.664062 12 5.25 C 12 4.835938 11.664062 4.5 11.25 4.5 Z M 6.75 4.5 "/>
</g>
</svg>
