<?xml version="1.0" encoding="utf-8"?>
<!-- Generator: Adobe Illustrator 26.3.1, SVG Export Plug-In . SVG Version: 6.00 Build 0)  -->
<svg version="1.1" id="Layer_1" xmlns="http://www.w3.org/2000/svg" xmlns:xlink="http://www.w3.org/1999/xlink" x="0px" y="0px"
	 viewBox="0 0 320 288" style="enable-background:new 0 0 320 288;" xml:space="preserve">
<style type="text/css">
	.st0{fill:#FFFFFF;stroke:#E5E5E5;stroke-width:6;stroke-linecap:round;stroke-linejoin:round;stroke-miterlimit:10;}
	.st1{fill:#666666;}
	.st2{fill:#FFFFFF;}
	.st3{fill:#B2B2B2;}
	.st4{fill:#D6A64F;}
	.st5{font-family:'OpenSans-Bold';}
	.st6{font-size:24.91px;}
</style>
<path class="st0" d="M47,120C55.8,54.8,110.9,9,178.5,9c16.1,0,28.2,1.8,42.5,7"/>
<path class="st0" d="M50,178L50,178c14.6,57.9,66.1,98,128.5,98c73.7,0,133.5-59.8,133.5-133.5c0-29.8-7.5-54.3-24-76.5"/>
<g>
	<path class="st1" d="M280.9,87.1c-1.6-0.6-3-1.1-4.3-1.5c-28.9-9.6-57.8-19.1-86.6-28.8c-3.2-1.1-6-1-9.1,0
		c-29.6,9.9-59.2,19.7-88.7,29.5c-0.6,0.2-1.1,0.4-2.1,0.8c1.7,0.6,3.1,1,4.4,1.5c29.5,9.8,59.1,19.6,88.6,29.4
		c1.7,0.6,3.2,0.6,4.8,0c15.9-5.4,31.9-10.8,47.8-16.2c0.3-0.1,0.7-0.3,1.4-0.6c-2-0.7-3.6-1.3-5.2-1.8
		c-15.6-5.3-31.1-10.7-46.7-15.9c-3.9-1.3-4.5-4.5-1.8-7.7c1.2-1.4,2.8-1,4.3-0.4c9.2,3.3,18.5,6.6,27.7,9.9
		c10.9,3.9,21.7,7.8,32.6,11.6c0.6,0.2,1.5,0.3,2.1,0.1c9.9-3.2,19.9-6.4,29.8-9.6C280.1,87.4,280.3,87.3,280.9,87.1z"/>
	<path class="st1" d="M233.3,110.9c-5.1,1.7-9.9,3.3-14.7,4.9c-10.6,3.5-21.2,7.1-31.8,10.5c-0.9,0.3-2,0.2-2.8-0.1
		c-15-4.9-29.9-9.9-44.9-14.9c-0.3-0.1-0.7-0.2-1.2-0.3c-0.1,0.5-0.1,1-0.1,1.4c0,8.4,0,16.8,0,25.2c0,3.4,1.2,6.1,3.6,8.5
		c4.5,4.4,10.1,6.7,16,8.5c12.1,3.6,24.6,4.4,37.1,3.5c7.9-0.6,15.5-1.9,22.9-4.6c4.4-1.6,8.6-3.6,12.1-6.9c2.7-2.5,4.1-5.5,4-9.4
		C233.2,128.5,233.3,119.9,233.3,110.9z"/>
	<path class="st1" d="M258.9,157c8.7-4.1,8.3-17.2-0.8-21.3c-0.5-0.2-0.8-1.2-0.8-1.9c-0.1-8.8,0-17.7,0-26.5c0-3.4-2.8-5.3-5.8-3.9
		c-1.7,0.8-2.1,2.2-2.1,4c0,8.6,0,17.2,0,25.8c0,1.6-0.4,2.5-1.9,3.2c-4.1,1.9-6,5.5-6.1,9.9c-0.1,4.2,1.4,7.8,5.2,10
		c0.9,0.6,1.1,1,0.8,2.1c-1.9,7.4-3.7,14.7-5.6,22.1c-0.1,0.5-0.2,1-0.3,1.6c7.9,0,15.7,0,23.7,0C263,173.6,261,165.4,258.9,157z"/>
</g>
<g>
	<path class="st3" d="M167.5,235.4c-21.7-12-42.6-23.4-63.3-35.1c-1.3-0.8-2.6-3.4-2.4-4.9c1.8-11.6,8.7-19.3,19.2-24
		c1.1-0.5,2.8-0.4,3.9,0.2c19.4,10,38.8,20,57,29.4c-4.4,4.6-9.5,8.8-13.2,14.1C164.5,220.8,165.2,227.8,167.5,235.4z"/>
	<path class="st3" d="M92.3,154.9c-13.4,10.2-13.4,10.2-20.9,27.5c-11.6-6.4-23.1-12.7-34.6-19.1c-6.6-3.7-13.3-7.4-19.6-11.5
		c-5.9-3.8-8.3-9.5-6.7-16.5c1.6-6.7,5.8-11.5,12.7-12.7c3.1-0.6,6.9-0.2,9.6,1.2c19.2,9.7,38.2,19.7,57.3,29.7
		C90.8,153.9,91.5,154.4,92.3,154.9z"/>
	<path class="st3" d="M220,194.5c-3.4,7.8-6.4,14.9-9.7,22.4c-8.8-13.1-23.7-15.9-35.9-23c-16.6-9.7-33.6-18.7-50.6-27.6
		c-7.7-4-15.9-7.1-24.4-10.8c3.1-5.9,5.9-11.1,8.7-16.5c0.6,0.5,0.9,0.7,1,0.9c2.1,3.7,3.4,9.1,6.6,10.8c3,1.6,8.1-0.7,13.1-1.5
		c-2.5,4.9-4.7,9.2-7.2,14.2C154.4,173.9,186.9,184.1,220,194.5z"/>
	<path class="st3" d="M203.6,214.9c-12.8-3.1-21.5,2.5-22.2,13.6c-0.3,5.3,3.2,9.8,7.9,10.2c4.2,0.4,8.6-2.9,9-7.2
		c0.1-1.4-1-3-1.6-4.4c-1,1-1.9,2-2.9,2.9c-1.4,1.3-2.8,2.6-4.3,3.9c-1-1.8-3.3-4.1-2.8-5.4c1.3-3.4,3.2-6.9,6-9.1
		c3.3-2.6,7.8-1.2,10,1.8c2.2,3,4.1,7.5,3.5,10.9c-1.2,7.9-9.8,13.2-18.4,12.8c-8.5-0.4-15.5-7.1-16.9-16.2
		c-1.4-8.4,3.7-17.4,11.6-20.6C190.1,204.8,198.2,207.3,203.6,214.9z"/>
	<path class="st3" d="M96.3,196.2c-6-3.3-11.6-6.2-16.9-9.5c-1.1-0.7-2.1-2.7-2.1-4.1c0.4-9.1,11-21.8,20-24c0.9-0.2,2.1-0.2,3,0.2
		c5.5,2.7,10.9,5.6,17.1,8.8C105.4,173.9,98.7,183.3,96.3,196.2z"/>
	<path class="st3" d="M50,129.3c2.4-5.5,4.6-10.6,6.5-15.1c13.2,12.3,26.2,24.6,39.3,36.8c-0.4,0.5-0.7,0.9-1.1,1.4
		C79.9,144.8,65.1,137.1,50,129.3z"/>
</g>
<path class="st4" d="M304.5,59h-77.1c-1.4,0-2.5-1.1-2.5-2.5V22.5c0-1.4,1.1-2.5,2.5-2.5h77.1c1.4,0,2.5,1.1,2.5,2.5v34.1
	C307,57.9,305.9,59,304.5,59z"/>
<text transform="matrix(1 0 0 1 235.5479 48.7021)" class="st2 st5 st6">NEW</text>
</svg>
