<?xml version="1.0" encoding="UTF-8"?>
<svg id="Layer_1" data-name="Layer 1" xmlns="http://www.w3.org/2000/svg" viewBox="0 0 81 81">
  <circle id="Ellipse_66" data-name="Ellipse 66" cx="40.5" cy="40.5" r="40.5" style="fill: #e2e2e2; stroke-width: 0px;"/>
  <g>
    <path d="m53.21403,23.81092c-.05005-3.26996-2.30005-6.13995-5.46002-6.98999-3.87-1.10999-6.42999,1.59003-7.37,2.84003-.94-1.25-3.51001-3.95001-7.38-2.84003-3.15002.85004-5.40002,3.72003-5.46002,6.97998-.04999.89001-.16998,8.94,12.40002,15.14001.13.07001.28998.10004.44.10004.14996,0,.29999-.03003.44-.10004,12.58997-6.21997,12.45001-14.25,12.39001-15.13Zm-18.39001-5.25c3.02997,0,4.63,3.40002,4.64996,3.42999.23004.5.83002.72003,1.33002.49005.22003-.10004.39001-.28003.48999-.49005.08002-.17999,2.04004-4.35999,5.92004-3.23999,2.32996.58002,3.97998,2.67004,4,5.07001v.10004c.02997.28998.39996,7.26996-10.83002,13-11.22003-5.72003-10.85999-12.71002-10.84003-13v-.10004c.03003-2.39996,1.67004-4.48999,4.02002-5.08002.40997-.12.84003-.17999,1.26001-.17999Z" style="stroke-width: 0px;"/>
    <path d="m62.28397,31.92097c.14001-1.95001-1.32996-3.65002-3.27997-3.80005-1.76001-.13-3.31,1.02002-3.71002,2.72003l-1.77997,7.47998c-.02002.08002-.03003.16003-.03003.23999,0,.45001.31.86005.77002.96002.52997.13,1.08002-.20001,1.20001-.73999l1.78998-7.47003c.19-.82996,1.02002-1.34998,1.85999-1.14996.74005.16998,1.24005.85999,1.17999,1.62l-1.20996,16.70001c-.01001.04999-.01001.10999,0,.15997,0,.03003.12,3.12-5.51001,6.14001-.13.07996-3.03003,1.73999-3.32001,4.65997l-6.27002-.89001v-9.46997c0-.16998.08002-.33002.22003-.44l8.31-6.40002c.33002-.25.73999-.34998,1.15002-.28998.40997.06.76996.28003,1.00995.60999.20001.27002.30005.59003.30005.92004.00995.39996-.15002.77997-.41003,1.04999l-4.87,4.64001c-.40002.37994-.40997,1.01996-.02997,1.41998.17999.19.42999.29999.69995.31.26001,0,.52002-.09003.71002-.28003l4.90002-4.65997c.65997-.67999,1.01996-1.58002,1-2.52002-.01001-.95001-.39001-1.83997-1.07001-2.5-1.25-1.21997-3.19-1.34998-4.60004-.29999l-8.32001,6.41998c-.62994.48004-.98999,1.22003-1,2.02002v9.39001c-.02997.01996-.06.03998-.08997.06-.19.14001-.31.35999-.34003.58997l-.34998,3.15002c-.04999.46997.28998.90997.77002.96002l10,1.19995c.02997,0,.06.01001.09998.01001.42999,0,.79999-.32001.85999-.73999l.47003-2.91998c.02997-.23004-.03003-.47003-.16003-.66003-.13995-.19-.35999-.31-.58997-.33997l-.42004-.06c.14001-1.89001,2.21002-3.13,2.30005-3.19,6.44-3.45001,6.57996-7.26001,6.53998-7.96002l1.21997-16.64996Zm-10.94995,30.66998l-8.30005-.98999.15002-1.39001,8.34003,1.16998-.19,1.21002Z" style="stroke-width: 0px;"/>
    <path d="m39.52402,59.12092c-.03003-.22998-.15002-.44995-.33002-.58997-.12-.09003-.26001-.15002-.41003-.17999v-9.27002c0-.79999-.35999-1.53003-1-2.02002l-8.32996-6.42999c-.77002-.56-1.70001-.79999-2.64001-.65997-.94.13995-1.76001.63995-2.33002,1.39996-.45001.62-.69,1.35004-.69,2.11005v.03998c.01001.92999.38,1.79999,1.04004,2.46002l4.87,4.63995c.39996.38,1.02997.37,1.40997-.02997.38-.40002.37-1.03003-.02997-1.41003l-4.85004-4.62c-.28998-.28998-.44-.67999-.44-1.09998.01001-.41003.17004-.79999.47003-1.08002.53998-.52997,1.37-.59998,1.97998-.14996l8.32001,6.40997c.14001.10999.21997.27002.21997.44v9.52002l-6.25995.88c-.27002-2.94-3.20001-4.63-3.34003-4.71002-5.60999-3.01001-5.48999-6.08002-5.48999-6.10999,0-.06.01001-.12,0-.17999l-1.22003-16.70001c-.06-.85004.58002-1.60004,1.43005-1.66003.77997-.04999,1.44.44,1.62,1.19l1.77997,7.47003c.07001.26001.22998.47998.45001.62.22998.14001.5.17999.76001.12s.47998-.22003.62-.45001.17999-.48999.12-.75l-1.78003-7.47998c-.45996-1.90002-2.37994-3.07001-4.27997-2.62-1.69.40997-2.83002,1.95996-2.71002,3.70001l1.21002,16.63995c-.03003.76001.15002,4.54004,6.52002,7.96002.09998.06,2.20996,1.29999,2.32996,3.23999l-.12.02002c-.22998.02997-.44.14996-.57996.33997-.14001.19-.20001.42999-.16003.66003l.46002,2.91998c.07001.42999.42999.73999.85999.73999.03998,0,.07001-.01001.10999-.01001l10-1.19995c.47003-.05005.82001-.49005.76001-.96002l-.34998-3.15002Zm-9.78003,3.47003l-.19-1.21002,8.33002-1.16998.15997,1.39001-8.29999.98999Z" style="stroke-width: 0px;"/>
  </g>
</svg>