<?xml version="1.0" encoding="utf-8"?>
<!-- Generator: Adobe Illustrator 25.3.0, SVG Export Plug-In . SVG Version: 6.00 Build 0)  -->
<svg version="1.1" id="Layer_1" xmlns="http://www.w3.org/2000/svg" xmlns:xlink="http://www.w3.org/1999/xlink" x="0px" y="0px"
	 width="81px" height="81px" viewBox="0 0 81 81" style="enable-background:new 0 0 81 81;" xml:space="preserve">
<style type="text/css">
	.st0{fill:#E2E2E2;}
</style>
<circle id="Ellipse_67" class="st0" cx="40.5" cy="40.5" r="40.5"/>
<g id="noun_support_3233849" transform="translate(13.328 751.381)">
	<g id="Group_547" transform="translate(5.998 62.625)">
		<g id="Group_540" transform="translate(0 0)">
			<g id="Group_539">
				<path id="Path_480" d="M3-766.1v-9.3c0-1,0.1-2,0.2-3c0,0.1,0,0.3-0.1,0.4c0.2-1.7,0.7-3.4,1.4-5l-0.2,0.4
					c0.4-0.9,0.8-1.8,1.4-2.6c0.3-0.4,0.5-0.8,0.8-1.2c0.1-0.1,0.2-0.2,0.2-0.3c0,0,0.1-0.1,0.1-0.1c0.2-0.2-0.2,0.3-0.1,0.1
					c0.2-0.2,0.3-0.4,0.5-0.6c0.6-0.7,1.3-1.4,2-2.1c0.2-0.2,0.4-0.3,0.6-0.5c0.1-0.1,0.2-0.1,0.3-0.2s0.3-0.2-0.1,0.1
					c0.1,0,0.1-0.1,0.2-0.1c0.4-0.3,0.8-0.6,1.2-0.9c0.9-0.6,1.9-1.1,2.9-1.5l-0.4,0.1c1.6-0.7,3.3-1.1,5-1.4c-0.1,0-0.3,0-0.4,0.1
					c1.8-0.2,3.5-0.2,5.3,0c-0.1,0-0.3,0-0.4-0.1c1.7,0.2,3.4,0.7,5,1.4l-0.4-0.1c0.9,0.4,1.8,0.8,2.6,1.4c0.4,0.3,0.8,0.5,1.2,0.8
					c0.1,0.1,0.2,0.2,0.3,0.2c0,0,0.1,0.1,0.1,0.1c0.2,0.2-0.3-0.2-0.1-0.1c0.2,0.2,0.4,0.3,0.6,0.5c0.7,0.6,1.4,1.3,2.1,2
					c0.2,0.2,0.3,0.4,0.5,0.5c0.1,0.1,0.1,0.2,0.2,0.3c0.1,0.1,0.2,0.3-0.1-0.1c0,0.1,0.1,0.1,0.1,0.2c0.3,0.4,0.6,0.8,0.9,1.2
					c0.6,0.9,1.1,1.9,1.5,2.9l-0.2-0.4c0.7,1.6,1.1,3.3,1.4,5c0-0.1,0-0.3-0.1-0.4c0.2,1.9,0.2,3.7,0.2,5.6v6.8c0,0.8,0,1.5-0.1,2.3
					c0-0.1,0-0.3,0.1-0.4c-0.1,0.7-0.3,1.5-0.6,2.1l0.2-0.4c-0.2,0.5-0.5,1-0.8,1.4c-0.1,0.1-0.2,0.2-0.2,0.3
					c-0.1,0.2,0.2-0.3,0.1-0.1l-0.1,0.2c-0.2,0.2-0.3,0.4-0.5,0.6s-0.4,0.4-0.6,0.5c-0.1,0-0.1,0.1-0.2,0.1
					c-0.2,0.2,0.3-0.2,0.1-0.1l-0.3,0.2c-0.5,0.3-0.9,0.6-1.4,0.8l0.4-0.2c-0.7,0.3-1.4,0.5-2.1,0.6c0.1,0,0.3,0,0.4-0.1
					c-1,0.1-2,0.1-3,0.1h-5c-0.8,0-1.5,0.7-1.5,1.5s0.7,1.5,1.5,1.5l0,0h6.8c2.1,0,4.1-0.6,5.8-1.8c2-1.4,3.4-3.5,4-5.9
					c0.2-1.1,0.3-2.3,0.2-3.4v-8.5c0-1,0-2.1-0.1-3.1c-0.2-2.4-0.8-4.7-1.8-6.9c-2.8-6.2-8.5-10.7-15.1-12
					c-4.6-0.9-9.4-0.2-13.7,1.9c-4,2-7.2,5.2-9.3,9.2c-1,2-1.8,4.2-2.1,6.4C0.1-777.8,0-776.4,0-775v8.9c0,0.8,0.7,1.5,1.5,1.5
					C2.3-764.7,3-765.3,3-766.1L3-766.1z"/>
			</g>
		</g>
		<g id="Group_542" transform="translate(30.594 16.801)">
			<g id="Group_541">
				<path id="Path_481" d="M8-782.2H4.2c-0.2,0-0.5,0-0.7,0c0.1,0,0.3,0,0.4,0.1c-0.2,0-0.4-0.1-0.6-0.1l0.4,0.1
					c-0.1-0.1-0.3-0.1-0.4-0.2c-0.3-0.1,0.3,0.2,0.1,0.1l-0.1-0.1c0,0-0.1-0.1-0.1-0.1c-0.2-0.2,0.2,0.3,0.1,0.1
					c-0.1-0.1-0.2-0.3-0.2-0.4l0.2,0.4C3-782.7,3-782.9,3-783.1c0,0.1,0,0.3,0.1,0.4c0-0.4,0-0.8,0-1.2v-8.1c0-0.5,0-1,0-1.5
					c0,0.1,0,0.3-0.1,0.4c0-0.2,0.1-0.4,0.2-0.6L3-793.3c0.1-0.1,0.1-0.3,0.2-0.4c0.2-0.3-0.2,0.3-0.1,0.1l0.1-0.1
					c0,0,0.1-0.1,0.1-0.1c0.2-0.2-0.3,0.2-0.1,0.1c0.1-0.1,0.3-0.2,0.4-0.2l-0.4,0.2c0.2-0.1,0.4-0.1,0.6-0.2c-0.1,0-0.3,0-0.4,0.1
					c0.5,0,1.1,0,1.6,0h2.4c0.2,0,0.5,0,0.7,0c-0.1,0-0.3,0-0.4-0.1c0.2,0,0.4,0.1,0.6,0.2L8.1-794c0.1,0.1,0.3,0.1,0.4,0.2
					c0.3,0.2-0.3-0.2-0.1-0.1l0.1,0.1c0,0,0.1,0.1,0.1,0.1c0.2,0.2-0.2-0.3-0.1-0.1c0.1,0.1,0.2,0.3,0.2,0.4l-0.2-0.4
					c0.1,0.2,0.1,0.4,0.2,0.6c0-0.1,0-0.3-0.1-0.4c0,0.4,0,0.8,0,1.2v8.1c0,0.5,0,1,0,1.5c0-0.1,0-0.3,0.1-0.4
					c0,0.2-0.1,0.4-0.2,0.6l0.2-0.4c-0.1,0.1-0.1,0.3-0.2,0.4c-0.2,0.3,0.2-0.3,0.1-0.1l-0.1,0.1c0,0-0.1,0.1-0.1,0.1
					c-0.2,0.2,0.3-0.2,0.1-0.1C8.3-782.3,8.2-782.2,8-782.2l0.4-0.1c-0.2,0.1-0.4,0.1-0.6,0.1c0.1,0,0.3,0,0.4-0.1
					C8.1-782.2,8.1-782.2,8-782.2c-0.8,0-1.5,0.7-1.5,1.5s0.7,1.5,1.5,1.5c1.8,0,3.3-1.3,3.7-3c0.1-0.5,0.1-0.9,0.1-1.4v-9
					c0-0.5,0-1.1-0.1-1.6c-0.5-1.6-2-2.8-3.7-2.8c-1.3,0-2.7,0-4,0c-1.4,0-2.7,0.7-3.4,1.9c-0.3,0.7-0.5,1.4-0.5,2.2v9
					c0,0.3,0,0.6,0,0.9c0,1.7,1.2,3.2,2.8,3.7c0.7,0.1,1.5,0.2,2.2,0.1H8c0.8,0,1.5-0.7,1.5-1.5C9.4-781.5,8.8-782.1,8-782.2z"/>
			</g>
		</g>
		<g id="Group_544" transform="translate(0.003 16.801)">
			<g id="Group_543">
				<path id="Path_482" d="M8-782.2H4.2c-0.2,0-0.5,0-0.7,0c0.1,0,0.3,0,0.4,0.1c-0.2,0-0.4-0.1-0.6-0.1l0.4,0.1
					c-0.1-0.1-0.3-0.1-0.4-0.2c-0.3-0.1,0.3,0.2,0.1,0.1l-0.1-0.1c0,0-0.1-0.1-0.1-0.1c-0.2-0.2,0.2,0.3,0.1,0.1
					c-0.1-0.1-0.2-0.3-0.2-0.4l0.2,0.4C3-782.7,3-782.9,3-783.1c0,0.1,0,0.3,0.1,0.4c0-0.4,0-0.8,0-1.2v-8.1c0-0.5,0-1,0-1.5
					c0,0.1,0,0.3-0.1,0.4c0-0.2,0.1-0.4,0.2-0.6L3-793.3c0.1-0.1,0.1-0.3,0.2-0.4c0.2-0.3-0.2,0.3-0.1,0.1l0.1-0.1
					c0,0,0.1-0.1,0.1-0.1c0.2-0.2-0.3,0.2-0.1,0.1c0.1-0.1,0.3-0.2,0.4-0.2l-0.4,0.2c0.2-0.1,0.4-0.1,0.6-0.2c-0.1,0-0.3,0-0.4,0.1
					c0.5,0,1.1,0,1.6,0h2.4c0.2,0,0.5,0,0.7,0c-0.1,0-0.3,0-0.4-0.1c0.2,0,0.4,0.1,0.6,0.2L8.1-794c0.1,0.1,0.3,0.1,0.4,0.2
					c0.3,0.2-0.3-0.2-0.1-0.1l0.1,0.1c0,0,0.1,0.1,0.1,0.1c0.2,0.2-0.2-0.3-0.1-0.1c0.1,0.1,0.2,0.3,0.2,0.4l-0.2-0.4
					c0.1,0.2,0.1,0.4,0.2,0.6c0-0.1,0-0.3-0.1-0.4c0,0.4,0,0.8,0,1.2v8.1c0,0.5,0,1,0,1.5c0-0.1,0-0.3,0.1-0.4
					c0,0.2-0.1,0.4-0.2,0.6l0.2-0.4c-0.1,0.1-0.1,0.3-0.2,0.4c-0.2,0.3,0.2-0.3,0.1-0.1l-0.1,0.1c0,0-0.1,0.1-0.1,0.1
					c-0.2,0.2,0.3-0.2,0.1-0.1C8.3-782.3,8.2-782.2,8-782.2l0.4-0.1c-0.2,0.1-0.4,0.1-0.6,0.1c0.1,0,0.3,0,0.4-0.1
					C8.1-782.2,8.1-782.2,8-782.2c-0.8,0-1.5,0.7-1.5,1.5s0.7,1.5,1.5,1.5c1.8,0,3.3-1.3,3.7-3c0.1-0.5,0.1-0.9,0.1-1.4v-9
					c0-0.5,0-1.1-0.1-1.6c-0.5-1.6-2-2.8-3.7-2.8c-1.3,0-2.7,0-4,0c-1.4,0-2.7,0.7-3.4,1.9c-0.3,0.7-0.5,1.4-0.5,2.2v9
					c0,0.3,0,0.6,0,0.9c0,1.7,1.2,3.2,2.8,3.7c0.7,0.1,1.5,0.2,2.2,0.1H8c0.8,0,1.5-0.7,1.5-1.5S8.8-782.2,8-782.2L8-782.2L8-782.2z
					"/>
			</g>
		</g>
		<g id="Group_546" transform="translate(14.393 36.139)">
			<g id="Group_545">
				<path id="Path_483" d="M8.2-791.2h-2c-0.7,0-1.4,0-2.1,0c0.1,0,0.3,0,0.4,0.1c-0.2,0-0.5-0.1-0.7-0.2l0.4,0.2
					c-0.2-0.1-0.3-0.2-0.5-0.2c0,0-0.1,0-0.1-0.1c-0.2-0.1,0.2,0.1,0.1,0.1c-0.1-0.1-0.1-0.1-0.2-0.2c-0.1-0.1-0.1-0.1-0.2-0.2
					c-0.1-0.1,0.2,0.3,0.1,0.2l-0.1-0.1c-0.1-0.2-0.2-0.3-0.3-0.5l0.1,0.4c-0.1-0.2-0.2-0.5-0.2-0.7c0,0.1,0,0.3,0.1,0.4
					c0-0.3,0-0.6,0-0.8c0,0.1,0,0.3-0.1,0.4c0-0.2,0.1-0.5,0.2-0.7L3-792.9c0.1-0.2,0.2-0.3,0.2-0.5c0,0,0-0.1,0.1-0.1
					c0.1-0.2-0.1,0.2-0.1,0.2c0.1-0.1,0.1-0.1,0.2-0.2c0.1-0.1,0.1-0.1,0.2-0.2c0.1-0.1-0.3,0.2-0.1,0.1l0.1-0.1
					c0.2-0.1,0.3-0.2,0.5-0.3l-0.4,0.2c0.2-0.1,0.5-0.2,0.7-0.2c-0.1,0-0.3,0-0.4,0.1c0.8-0.1,1.5-0.1,2.3,0c0.8,0,1.5,0,2.3,0
					c-0.1,0-0.3,0-0.4-0.1c0.2,0,0.5,0.1,0.7,0.2L8.5-794c0.2,0.1,0.3,0.2,0.5,0.2c0,0,0.1,0,0.1,0.1c0.2,0.1-0.2-0.1-0.1-0.1
					c0.1,0.1,0.1,0.1,0.2,0.2c0.1,0.1,0.1,0.1,0.2,0.2c0.1,0.1-0.2-0.3-0.1-0.2l0.1,0.1c0.1,0.2,0.2,0.3,0.3,0.5l-0.1-0.4
					c0.1,0.2,0.2,0.5,0.2,0.7c0-0.1,0-0.3-0.1-0.4c0,0.3,0,0.6,0,0.8c0-0.1,0-0.3,0.1-0.4c0,0.2-0.1,0.5-0.2,0.7l0.1-0.4
					c-0.1,0.2-0.2,0.3-0.2,0.5c0,0,0,0.1-0.1,0.1c-0.1,0.2,0.1-0.2,0.1-0.2c-0.1,0.1-0.1,0.1-0.2,0.2c-0.1,0.1-0.1,0.1-0.2,0.2
					c-0.1,0.1,0.3-0.2,0.1-0.1L9-791.5c-0.2,0.1-0.3,0.2-0.5,0.3l0.4-0.2C8.6-791.3,8.4-791.2,8.2-791.2c0.2,0,0.3,0,0.4,0
					C8.4-791.2,8.3-791.2,8.2-791.2c-0.8,0-1.5,0.7-1.5,1.5s0.7,1.5,1.5,1.5c2.4,0,4.4-2,4.4-4.4c0-2.4-2-4.4-4.4-4.4
					c-0.6,0-1.2,0-1.8,0H4.4c-1.5,0-2.8,0.7-3.7,1.9c-1.4,2-0.9,4.8,1.1,6.1c0.7,0.5,1.5,0.7,2.3,0.8c0.6,0,1.1,0,1.7,0h2.3
					c0.8,0,1.5-0.7,1.5-1.5S9-791.2,8.2-791.2L8.2-791.2z"/>
			</g>
		</g>
	</g>
</g>
</svg>
