<?xml version="1.0" encoding="utf-8"?>
<!-- Generator: Adobe Illustrator 25.3.0, SVG Export Plug-In . SVG Version: 6.00 Build 0)  -->
<svg version="1.1" id="Layer_1" xmlns="http://www.w3.org/2000/svg" xmlns:xlink="http://www.w3.org/1999/xlink" x="0px" y="0px"
	 width="81px" height="81px" viewBox="0 0 81 81" style="enable-background:new 0 0 81 81;" xml:space="preserve">
<style type="text/css">
	.st0{fill:#E2E2E2;}
</style>
<circle id="Ellipse_63" class="st0" cx="40.5" cy="40.5" r="40.5"/>
<g id="noun_leader_2295261" transform="translate(11.499 12.861)">
	<g id="_10_Leader" transform="translate(3.066 10.982)">
		<path id="Path_463" d="M51.9,22.2c-0.4-3.2-2.6-6-5.6-7.2c2.3-1.8,2.8-5.2,0.9-7.6c-1.8-2.3-5.2-2.8-7.6-0.9
			c-2.3,1.8-2.8,5.2-0.9,7.6c0.3,0.3,0.6,0.7,0.9,0.9c-1.6,0.6-3,1.7-4,3.2c-1.6-1.5-3.5-2.6-5.5-3.2c3.8-2.3,5-7.3,2.7-11.1
			s-7.3-5-11.1-2.7s-5,7.3-2.7,11.1c0.7,1.1,1.6,2.1,2.7,2.7c-2.1,0.6-4,1.7-5.5,3.2c-1-1.4-2.4-2.5-4-3.2c2.3-1.8,2.8-5.2,0.9-7.6
			S7.9,4.7,5.6,6.5c-2.3,1.8-2.8,5.2-0.9,7.6c0.3,0.3,0.6,0.7,0.9,0.9c-3,1.2-5.2,3.9-5.6,7.2c-0.1,1,0.6,1.9,1.6,2
			c0.1,0,0.1,0,0.2,0h10.5c-0.5,1.4-0.7,3-0.7,4.5v0.9c0,1,0.8,1.8,1.8,1.8h7.3l-0.9,5.2c-0.1,0.5,0.3,1,0.7,1c0.2,0,0.4,0,0.6-0.1
			l4.9-2.5l4.9,2.5c0.4,0.2,1,0.1,1.2-0.4c0.1-0.2,0.1-0.4,0.1-0.6l-0.9-5.2h7.3c1,0,1.8-0.8,1.8-1.8v-0.9c0-1.5-0.2-3-0.7-4.5h10.5
			c1,0,1.8-0.8,1.8-1.8C51.9,22.3,51.9,22.2,51.9,22.2L51.9,22.2z M39.4,10.8c0-2,1.6-3.6,3.6-3.6c2,0,3.6,1.6,3.6,3.6
			S45,14.4,43,14.4l0,0C41,14.4,39.4,12.8,39.4,10.8z M19.7,8.1c0-3.5,2.8-6.3,6.3-6.3s6.3,2.8,6.3,6.3s-2.8,6.3-6.3,6.3
			c0,0,0,0,0,0C22.5,14.4,19.7,11.5,19.7,8.1L19.7,8.1z M5.3,10.8c0-2,1.6-3.6,3.6-3.6s3.6,1.6,3.6,3.6s-1.6,3.6-3.6,3.6
			S5.3,12.8,5.3,10.8L5.3,10.8z M13,22.4l-11.2,0c0.5-3.9,4.1-6.7,8-6.2c2.1,0.3,4,1.5,5.1,3.3C14.2,20.4,13.6,21.4,13,22.4z
			 M26.4,33.2c-0.3-0.1-0.6-0.1-0.8,0l-3.7,1.9l0.7-4.1c0-0.3,0-0.6-0.3-0.8l-0.2-0.2l-0.2-0.2l0,0l-2.6-2.5l4.1-0.6
			c0.3,0,0.5-0.2,0.7-0.5l1.8-3.7l1.8,3.7c0.1,0.3,0.4,0.4,0.7,0.5l4.1,0.6L30,29.8l0,0c-0.2,0.2-0.4,0.3-0.4,0.4l0,0l0,0l0,0l0,0
			c-0.2,0.2-0.3,0.6-0.2,0.9c0,0,0,0.1,0,0.1l0.7,3.9L26.4,33.2z M38.5,29.6h-5.7c0.6-0.6,1.3-1.3,2.2-2.1l0.1-0.1l0,0c0,0,0,0,0,0
			c0.1-0.1,0.1-0.1,0.1-0.2c0,0,0-0.1,0-0.1c0,0,0-0.1,0.1-0.1c0-0.1,0-0.2,0-0.2v0c0-0.1,0-0.2,0-0.2c0-0.1-0.1-0.1-0.1-0.2l0,0
			c-0.1-0.1-0.1-0.1-0.2-0.2c0,0,0,0-0.1,0c-0.4-0.3-0.1,0-5.8-0.9l-2.4-4.9c-0.3-0.4-0.8-0.6-1.3-0.3c-0.1,0.1-0.2,0.2-0.3,0.3
			l-2.4,4.9c-3.2,0.7-6.7,0.3-6.2,1.9c0,0.2,0.1,0.3,0.2,0.4l0.4,0.4l0,0l1.9,1.8h-5.7v-0.9c0-6.9,5.6-12.6,12.6-12.6
			s12.5,5.6,12.5,12.6V29.6z M50.1,22.4H38.8c-0.5-1-1.2-2-1.9-2.9c2.1-3.3,6.6-4.3,9.9-2.2C48.6,18.4,49.8,20.3,50.1,22.4
			C50.1,22.4,50.1,22.4,50.1,22.4L50.1,22.4z"/>
	</g>
</g>
</svg>
