<?xml version="1.0" encoding="utf-8"?>
<!-- Generator: Adobe Illustrator 25.3.0, SVG Export Plug-In . SVG Version: 6.00 Build 0)  -->
<svg version="1.1" id="Layer_1" xmlns="http://www.w3.org/2000/svg" xmlns:xlink="http://www.w3.org/1999/xlink" x="0px" y="0px"
	 width="81px" height="81px" viewBox="0 0 81 81" style="enable-background:new 0 0 81 81;" xml:space="preserve">
<style type="text/css">
	.st0{fill:#E2E2E2;}
</style>
<circle id="Ellipse_66" class="st0" cx="40.5" cy="40.5" r="40.5"/>
<g id="noun_wondering_1688557" transform="translate(14.347 581.602)">
	<g id="Group_538" transform="translate(17.153 11.571)">
		<g id="Group_532" transform="translate(0.266 0.266)">
			<path id="Path_471" d="M0.8-552.9h1.6c0.3,0,0.5-0.2,0.5-0.5L3.3-565c0-0.3-0.2-0.5-0.5-0.5c0,0,0,0,0,0H0.5
				c-0.3,0-0.5,0.2-0.5,0.5c0,0,0,0,0,0l0.3,11.6C0.3-553.1,0.6-552.9,0.8-552.9z"/>
		</g>
		<g id="Group_533" transform="translate(0 13.82)">
			<path id="Path_472" d="M1.9-565.5c-1.1,0-2,1-1.9,2c0,1,0.9,1.9,1.9,1.9c1,0,1.9-0.8,1.9-1.9c0,0,0-0.1,0-0.1
				c0.1-1-0.7-1.9-1.7-2C2-565.5,2-565.5,1.9-565.5z"/>
		</g>
		<g id="Group_534" transform="translate(5.436)">
			<path id="Path_473" d="M3.9-565.5c-1.3,0-2.6,0.3-3.7,1.1C0-564.3,0-564.1,0-563.9l0.6,1.5c0.1,0.2,0.4,0.4,0.6,0.3
				c0,0,0.1,0,0.1-0.1c0.6-0.4,1.4-0.7,2.1-0.7c0.8,0,1.8,0.3,1.8,1.6c0,1-0.6,1.8-1.6,3c-1.1,1.2-1.7,2.9-1.6,4.5l0,0.6
				c0,0.3,0.2,0.4,0.5,0.4h1.9c0.3,0,0.5-0.2,0.5-0.5l0,0c0,0,0-0.1,0-0.1l0-0.5c0-1.2,0.4-2.4,1.3-3.2c1.2-1.5,2.2-2.7,2.2-4.5
				C8.5-563.5,7.1-565.5,3.9-565.5z"/>
		</g>
		<g id="Group_535" transform="translate(7.079 13.796)">
			<path id="Path_474" d="M1.9-565.5c-1.1,0-2,0.8-2.1,1.9c0,1.1,0.8,2,1.9,2.1s2-0.8,2.1-1.9c0,0,0-0.1,0-0.1
				c0.1-1.1-0.8-1.9-1.8-2C2-565.5,2-565.5,1.9-565.5z"/>
		</g>
		<g id="Group_536" transform="translate(15.631 0.266)">
			<path id="Path_475" d="M0.8-552.9h1.6c0.3,0,0.5-0.2,0.5-0.5L3.3-565c0-0.3-0.2-0.5-0.5-0.5c0,0,0,0,0,0H0.5
				c-0.3,0-0.5,0.2-0.5,0.5c0,0,0,0,0,0l0.3,11.6C0.3-553.1,0.6-552.9,0.8-552.9z"/>
		</g>
		<g id="Group_537" transform="translate(15.365 13.82)">
			<path id="Path_476" d="M1.9-565.5c-1.1,0-2,1-1.9,2c0,1,0.9,1.9,1.9,1.9c1,0,1.9-0.8,1.9-1.9c0,0,0-0.1,0-0.1
				c0.1-1-0.7-1.9-1.7-2C2-565.5,2-565.5,1.9-565.5z"/>
		</g>
	</g>
	<path id="Path_477" d="M17.2-519.4c-1.9,0-3.4-1.5-3.4-3.4s1.5-3.4,3.4-3.4c1.9,0,3.4,1.5,3.4,3.4c0,0.9-0.4,1.8-1,2.4
		C18.9-519.7,18.1-519.4,17.2-519.4z M17.2-524.2c-0.8,0-1.4,0.6-1.4,1.4c0,0.4,0.2,0.8,0.4,1c0.6,0.5,1.5,0.5,2,0
		c0.6-0.6,0.6-1.5,0-2C17.9-524,17.6-524.2,17.2-524.2z"/>
	<path id="Path_478" d="M12.4-515.8c-1.2,0-2.2-1-2.2-2.2c0-1.2,1-2.2,2.2-2.2s2.2,1,2.2,2.2c0,0.6-0.2,1.1-0.6,1.5
		C13.5-516,12.9-515.8,12.4-515.8z M12.4-518.7c-0.4,0-0.7,0.3-0.7,0.7c0,0.2,0.1,0.4,0.2,0.5c0.3,0.3,0.7,0.3,1,0
		c0.3-0.3,0.3-0.7,0-1C12.7-518.6,12.5-518.7,12.4-518.7L12.4-518.7z"/>
	<path id="Path_479" d="M22.9-526.1c-2.1,0-3.8-1.4-4.3-3.4H8.9c-2.1,0-3.9-1.7-3.9-3.9c0,0,0,0,0,0v-23.2c0-2.1,1.7-3.9,3.9-3.9
		c0,0,0,0,0,0h35.8c2.1,0,3.9,1.7,3.9,3.9c0,0,0,0,0,0v23.2c0,2.1-1.7,3.9-3.9,3.9c0,0,0,0,0,0H27.1
		C26.7-527.6,24.9-526.1,22.9-526.1L22.9-526.1z M8.9-558.6c-1.1,0-1.9,0.9-1.9,1.9l0,0v23.2c0,1.1,0.9,1.9,1.9,1.9h10.6
		c0.5,0,1,0.4,1,1c0,0,0,0,0,0c0,0.3,0.1,0.6,0.2,0.9c0.5,1.2,1.9,1.8,3.1,1.4c0.6-0.2,1.1-0.7,1.4-1.4c0.1-0.3,0.2-0.6,0.2-0.9
		c0-0.5,0.4-1,0.9-1c0,0,0,0,0,0h18.4c1.1,0,1.9-0.9,1.9-1.9v-23.2c0-1.1-0.9-1.9-1.9-1.9H8.9z"/>
</g>
</svg>
