<?xml version="1.0" encoding="utf-8"?>
<!-- Generator: Adobe Illustrator 25.3.0, SVG Export Plug-In . SVG Version: 6.00 Build 0)  -->
<svg version="1.1" id="Layer_1" xmlns="http://www.w3.org/2000/svg" xmlns:xlink="http://www.w3.org/1999/xlink" x="0px" y="0px"
	 width="81px" height="81px" viewBox="0 0 81 81" style="enable-background:new 0 0 81 81;" xml:space="preserve">
<style type="text/css">
	.st0{fill:#E2E2E2;}
</style>
<circle id="Ellipse_65" class="st0" cx="40.5" cy="40.5" r="40.5"/>
<g id="noun_equality_4094335" transform="translate(13 370.092)">
	<path id="Path_464" d="M54.4-322.6H51l0.7-7c1.1-0.3,1.8-1.3,1.8-2.5v-5.2c0-1.8-1.1-3.4-2.8-4c1.6-1.8,1.5-4.5-0.3-6.1
		c-1.8-1.6-4.5-1.5-6.1,0.3c-1.5,1.6-1.5,4.1,0,5.8c-1.7,0.6-2.8,2.2-2.8,4v5.2c0,1.1,0.7,2.1,1.8,2.5l0.7,7H10.5l0.6-3.6
		c1.1-0.3,1.8-1.3,1.8-2.5v-3.5c0-1.7-1-3.2-2.5-3.9c0.5-0.6,0.8-1.4,0.8-2.1c0-1.9-1.5-3.5-3.5-3.5s-3.5,1.5-3.5,3.5
		c0,0.8,0.3,1.5,0.8,2.1c-1.5,0.7-2.5,2.2-2.5,3.9v3.5c0,1.1,0.7,2.1,1.8,2.5l0.6,3.6H0.9c-0.5,0-0.9,0.4-0.9,0.9v3.5
		c0,0.5,0.4,0.9,0.9,0.9h21.9c-3.3,2.7-3.9,7.6-1.2,10.9c2.7,3.3,7.6,3.9,10.9,1.2c3.3-2.7,3.9-7.6,1.2-10.9
		c-0.3-0.4-0.7-0.8-1.2-1.2h21.9c0.5,0,0.9-0.4,0.9-0.9v-3.5C55.3-322.2,54.9-322.6,54.4-322.6C54.4-322.6,54.4-322.6,54.4-322.6z
		 M47.5-346.8c1.4,0,2.6,1.2,2.6,2.6s-1.2,2.6-2.6,2.6s-2.6-1.2-2.6-2.6l0,0C44.9-345.6,46.1-346.8,47.5-346.8z M44.9-330.5
		c0-0.4-0.4-0.8-0.9-0.8c-0.5,0-0.9-0.4-0.9-0.9v-5.2c0-1.4,1.2-2.6,2.6-2.6h3.5c1.4,0,2.6,1.2,2.6,2.6v5.2c0,0.5-0.4,0.9-0.9,0.9
		c-0.4,0-0.8,0.3-0.9,0.8l-0.8,7.9h-3.6L44.9-330.5z M7.8-339.9c1,0,1.7,0.8,1.7,1.7s-0.8,1.7-1.7,1.7S6-337.2,6-338.1l0,0
		C6-339.1,6.8-339.9,7.8-339.9z M6-327.1c-0.1-0.4-0.4-0.7-0.9-0.7c-0.5,0-0.9-0.4-0.9-0.9v-3.5c0-1.4,1.2-2.6,2.6-2.6h1.7
		c1.4,0,2.6,1.2,2.6,2.6v3.5c0,0.5-0.4,0.9-0.9,0.9c-0.4,0-0.8,0.3-0.9,0.7l-0.7,4.5h-2L6-327.1z M33.7-311.4c0,3.3-2.7,6-6,6
		s-6-2.7-6-6s2.7-6,6-6h0C31-317.4,33.7-314.7,33.7-311.4z M53.5-319.1H1.7v-1.7h51.8L53.5-319.1z"/>
</g>
</svg>
