<?xml version="1.0" encoding="utf-8"?>
<!-- Generator: Adobe Illustrator 25.3.0, SVG Export Plug-In . SVG Version: 6.00 Build 0)  -->
<svg version="1.1" id="Layer_1" xmlns="http://www.w3.org/2000/svg" xmlns:xlink="http://www.w3.org/1999/xlink" x="0px" y="0px"
	 width="81px" height="81px" viewBox="0 0 81 81" style="enable-background:new 0 0 81 81;" xml:space="preserve">
<style type="text/css">
	.st0{fill:#E2E2E2;}
</style>
<circle id="Ellipse_64" class="st0" cx="40.5" cy="40.5" r="40.5"/>
<g id="noun_experiences_2773671" transform="translate(15.193 165.683)">
	<g id="Group_531" transform="translate(2.5 7.7)">
		<path id="Path_469" d="M26.6-125.2c2.8-2,3.3-5.9,1.3-8.7c-2-2.8-5.9-3.3-8.7-1.3c-2.8,2-3.3,5.9-1.3,8.7c0.4,0.5,0.8,0.9,1.3,1.3
			c-2.9,0.7-5.1,3.1-5.5,6.1l-0.6,4.9c-0.2,1.2,0.7,2.4,1.9,2.7c2.6,0.5,5.2,0.8,7.9,0.8c2.7,0,5.3-0.3,7.9-0.8
			c1.2-0.3,2-1.4,1.9-2.7l-0.6-4.9C31.7-122.1,29.5-124.5,26.6-125.2z M22.8-134c2.1,0,3.8,1.7,3.8,3.8c0,2.1-1.7,3.8-3.8,3.8
			s-3.8-1.7-3.8-3.8C19-132.3,20.7-134,22.8-134z M15.4-114l0.6-4.9c0.3-2.4,2.3-4.2,4.7-4.2h4.2c2.4,0,4.4,1.8,4.7,4.2l0.6,4.9
			C25.3-113,20.3-113,15.4-114L15.4-114z"/>
		<path id="Path_470" d="M43.4-134.4c-1.9,0-3.6,1.3-4.1,3.2h-6c-0.2-2.1-1-4.1-2.3-5.7l4.2-4.2c0.6,0.4,1.4,0.6,2.1,0.6
			c2.3,0,4.2-1.9,4.2-4.2s-1.9-4.2-4.2-4.2c-2.3,0-4.2,1.9-4.2,4.2c0,0,0,0,0,0c0,0.8,0.2,1.5,0.6,2.1l-4.2,4.2
			c-1.6-1.3-3.6-2.2-5.6-2.4v-6c2.3-0.6,3.6-2.9,3.1-5.1s-2.9-3.6-5.1-3.1s-3.6,2.9-3.1,5.1c0.4,1.5,1.6,2.7,3.1,3.1v6
			c-2.1,0.2-4,1-5.6,2.4l-4.2-4.2c0.4-0.6,0.6-1.4,0.6-2.1c0-2.3-1.9-4.2-4.2-4.2s-4.2,1.9-4.2,4.2s1.9,4.2,4.2,4.2h0
			c0.8,0,1.5-0.2,2.1-0.6l4.2,4.2c-1.3,1.6-2.2,3.6-2.4,5.6h-6c-0.6-2.3-2.9-3.6-5.1-3c-2.3,0.6-3.6,2.9-3,5.1
			c0.5,1.9,2.2,3.2,4.1,3.2c1.9,0,3.6-1.3,4.1-3.2h6c0.1,0.8,0.2,1.6,0.5,2.3c0.1,0.4,0.5,0.7,1,0.7c0.1,0,0.2,0,0.3-0.1
			c0.5-0.2,0.8-0.8,0.6-1.3c-0.3-0.8-0.4-1.7-0.4-2.6c0-4.7,3.8-8.6,8.6-8.6s8.6,3.8,8.6,8.6c0,0.9-0.1,1.8-0.4,2.6
			c-0.2,0.5,0.1,1.1,0.6,1.3c0.5,0.2,1.1-0.1,1.3-0.6c0.2-0.7,0.4-1.5,0.5-2.2h6c0.6,2.3,2.9,3.6,5.2,3s3.6-2.9,3-5.2
			C47-133.1,45.3-134.4,43.4-134.4L43.4-134.4z M2.2-128.1c-1.2,0-2.2-1-2.2-2.2c0-1.2,1-2.2,2.2-2.2s2.2,1,2.2,2.2
			C4.4-129,3.4-128.1,2.2-128.1z M37.4-146.9c1.2,0,2.2,1,2.2,2.2c0,1.2-1,2.2-2.2,2.2c-1.2,0-2.2-1-2.2-2.2
			C35.2-145.9,36.2-146.9,37.4-146.9z M20.7-150.8c0-1.2,1-2.2,2.2-2.2s2.2,1,2.2,2.2c0,1.2-1,2.2-2.2,2.2
			C21.7-148.6,20.7-149.6,20.7-150.8z M8.3-142.6c-1.2,0-2.2-1-2.2-2.2c0-1.2,1-2.2,2.2-2.2s2.2,1,2.2,2.2
			C10.5-143.6,9.5-142.6,8.3-142.6z M43.4-128c-1.2,0-2.2-1-2.2-2.2c0-1.2,1-2.2,2.2-2.2c1.2,0,2.2,1,2.2,2.2
			C45.6-129,44.6-128,43.4-128z"/>
	</g>
</g>
</svg>
